<?xml version="1.0" encoding="UTF-8" standalone="no"?>
<svg
   xmlns:dc="http://purl.org/dc/elements/1.1/"
   xmlns:cc="http://creativecommons.org/ns#"
   xmlns:rdf="http://www.w3.org/1999/02/22-rdf-syntax-ns#"
   xmlns:svg="http://www.w3.org/2000/svg"
   xmlns="http://www.w3.org/2000/svg"
   xmlns:sodipodi="http://sodipodi.sourceforge.net/DTD/sodipodi-0.dtd"
   xmlns:inkscape="http://www.inkscape.org/namespaces/inkscape"
   inkscape:version="1.0 (4035a4fb49, 2020-05-01)"
   sodipodi:docname="bioOmiteca.svg"
   id="svg22"
   version="1.1"
   viewBox="0 0 120 30.09"
   style="height:150px"
   class="cabecalho-sm-logo mx-auto">
  <metadata
     id="metadata26">
    <rdf:RDF>
      <cc:Work
         rdf:about="">
        <dc:format>image/svg+xml</dc:format>
        <dc:type
           rdf:resource="http://purl.org/dc/dcmitype/StillImage" />
      </cc:Work>
    </rdf:RDF>
  </metadata>
  <sodipodi:namedview
     inkscape:current-layer="svg22"
     inkscape:window-maximized="1"
     inkscape:window-y="-9"
     inkscape:window-x="-9"
     inkscape:cy="20.986849"
     inkscape:cx="59.971727"
     inkscape:zoom="10.433333"
     showgrid="false"
     id="namedview24"
     inkscape:window-height="1001"
     inkscape:window-width="1920"
     inkscape:pageshadow="2"
     inkscape:pageopacity="0"
     guidetolerance="10"
     gridtolerance="10"
     objecttolerance="10"
     borderopacity="1"
     bordercolor="#666666"
     pagecolor="#ffffff" />
  <defs
     id="defs2" />
  <g
     id="g862">
    <path
       fill="none"
       stroke="#d1d1d1"
       stroke-linecap="round"
       stroke-linejoin="round"
       stroke-width=".913646"
       d="M30.27 12.7c-.04-.1-.14-.5-.22-.88a6.9 6.9 0 01-.16-1.76c0-1.1.07-1.66.33-2.56.17-.56.18-.57.3-.32.12.22.12.23-.03.81a9.24 9.24 0 00-.1 3.95c.15.69.15.67.04.82-.08.11-.09.1-.16-.07zm-2.4 15.78l-.2-.11.23-.4c.3-.55 3.08-5.36 4.36-7.57.6-1.03 1.1-1.83 1.2-1.9.1-.07.25-.2.35-.3.13-.14.16-.16.13-.07l-.13.43c-.04.17-.27.66-.51 1.09-1.3 2.27-5.13 8.85-5.2 8.92-.01.02-.12-.02-.23-.09zM47.2 10.16a8.25 8.25 0 01-8.25 8.25 8.25 8.25 0 01-8.24-8.25 8.25 8.25 0 018.24-8.24 8.25 8.25 0 018.25 8.24zM27.62 28.92c-.46-.27-.56-.45-.4-.75.25-.5 5.66-9.84 5.77-9.96.06-.08.2-.17.29-.2.2-.09.32-.35.27-.57-.03-.1-.22-.3-.5-.53a9.24 9.24 0 01-1.99-2.4c-.25-.45-.26-.46-.16-.63.06-.09.12-.17.14-.17a8.95 8.95 0 001.75 2.42 8.66 8.66 0 004.75 2.45c.7.11 2.08.11 2.78 0A8.66 8.66 0 0047.55 9a8.71 8.71 0 00-7.08-7.52 8.54 8.54 0 00-7.55 2.31 8.07 8.07 0 00-1.57 2l-.23.45-.13-.2-.12-.2.27-.45a9.31 9.31 0 014.8-3.92A7.45 7.45 0 0138.93 1c1.04 0 1.3.02 1.83.14a9.02 9.02 0 014.7 2.62 9.06 9.06 0 01-9.8 14.7c-.88-.35-.97-.37-1.16-.22-.13.1-.17.18-.2.42a1.5 1.5 0 01-.12.44c-.69 1.25-5.72 9.9-5.79 9.96-.16.13-.38.09-.77-.13zm5.17-23.5l2.67 2.67m-6-.2l-1.39-2.43m-.16 8.86h-4.83m-.1-8.88l-2.41 4.18m13.84-6.3s4.38 4 4.38 6.68c0 2.69-4.65 6.65-4.65 6.65M38.89 1.8a8.2 8.2 0 00-7.71 5.53c-.87-1.57-1.96-3.3-2.31-3.5-.6-.34-6.37-.34-6.98 0-.6.35-3.48 5.35-3.48 6.05 0 .7 2.88 5.69 3.48 6.04.6.35 6.38.35 6.98 0 .34-.2 1.4-1.86 2.26-3.4a8.2 8.2 0 007.8 5.68 8.2 8.2 0 008.2-8.2 8.2 8.2 0 00-8.2-8.2 8.2 8.2 0 00-.04 0zm.03-1.35A9.56 9.56 0 0029.37 10a9.56 9.56 0 003.71 7.56.92.92 0 00-.58.44l-5.73 9.92c-.25.44-.1 1 .34 1.26l.56.32c.44.26 1 .1 1.26-.33l5.73-9.93c.12-.2.15-.42.1-.63a9.56 9.56 0 004.17.95A9.56 9.56 0 0048.49 10 9.56 9.56 0 0038.93.46a9.56 9.56 0 000 0z"
       paint-order="stroke fill markers"
       id="path4"
       style="stroke:#ffffff;stroke-opacity:1" />
    <g
       style="line-height:1.25;-inkscape-font-specification:'OCR A Extended, Normal';font-variant-ligatures:normal;font-variant-caps:normal;font-variant-numeric:normal;font-variant-east-asian:normal;fill:#ffffff"
       id="g8">
      <path
         stroke-width=".26"
         d="M1.3 6.72V9.8l.59-.46q.54-.45 1.13-.45h1.2q.66 0 1.17.45l.62.54q.26.22.43.64.17.42.17.83V14q0 .36-.16.75-.15.4-.36.59l-.57.54q-.21.2-.62.38-.4.16-.69.16H3.1q-.82 0-1.78-.91v.26q0 .27-.2.46-.18.2-.46.2-.27 0-.46-.2t-.2-.46V6.72q0-.27.2-.46.19-.2.45-.2.28 0 .46.2.2.19.2.46zm2.81 3.5h-.9q-.33 0-.5.14l-1.18 1q-.22.2-.22.61v1.48q0 .33.26.55l1.05.89q.22.2.47.2h1.07q.23 0 .39-.13l.52-.47q.21-.16.21-.45V11.3q0-.33-.2-.5l-.48-.4q-.22-.18-.49-.18zm8.11-4.73h.68q.27 0 .46.2.2.18.2.45v.57q0 .27-.2.47-.19.2-.46.2h-.7q-.28 0-.47-.2-.2-.2-.18-.46l.01-.58q0-.27.19-.45.2-.2.47-.2zm2.66 10.92H10.9q-.27 0-.47-.2-.18-.19-.18-.46 0-.26.18-.46.2-.2.47-.2h1.34v-4.88h-1.32q-.28 0-.47-.2-.19-.19-.19-.45 0-.28.19-.47.2-.2.47-.2h2q.26 0 .45.2.2.2.2.47v5.54h1.3q.28 0 .47.2.2.18.2.45t-.19.47q-.2.19-.46.19z"
         aria-label="bi"
         font-family="OCR A Extended"
         font-size="70.56"
         font-weight="400"
         letter-spacing="0"
         style="-inkscape-font-specification:'OCR A Extended, Normal';font-variant-ligatures:normal;font-variant-caps:normal;font-variant-numeric:normal;font-variant-east-asian:normal;fill:#ffffff"
         id="path6" />
    </g>
    <g
       style="line-height:1.25;-inkscape-font-specification:'OCR A Extended, Normal';font-variant-ligatures:normal;font-variant-caps:normal;font-variant-numeric:normal;font-variant-east-asian:normal;fill:#ffffff"
       id="g12">
      <path
         stroke-width=".26"
         d="M52.68 15.77V9.56q0-.28.19-.46.2-.2.47-.2.5 0 .64.5.54-.51 1.21-.51.79 0 1.3.67.62-.67 1.37-.67.6 0 1.05.43.45.43.48 1.1l.19 5.35q0 .26-.2.46t-.46.2q-.27 0-.46-.2-.2-.2-.2-.46l-.16-5.14q-.02-.42-.26-.42-.13 0-.27.12l-.78.65v4.79q0 .26-.2.45-.18.19-.46.19-.26 0-.46-.2-.19-.19-.19-.46v-5.2q0-.34-.29-.34-.14 0-.26.1l-.94.8v4.66q0 .26-.19.46-.18.2-.45.2t-.47-.2q-.2-.2-.2-.46zM65.1 5.49h.68q.27 0 .46.2.2.18.2.45v.57q0 .27-.2.47-.19.2-.46.2h-.7q-.28 0-.48-.2-.18-.2-.18-.46l.02-.58q0-.27.19-.45.2-.2.46-.2zm2.66 10.92h-4q-.26 0-.46-.2-.18-.19-.18-.46 0-.26.18-.46.2-.2.47-.2h1.34v-4.88h-1.32q-.28 0-.47-.2-.19-.19-.19-.45 0-.28.19-.47.2-.2.47-.2h1.99q.27 0 .46.2.2.2.2.47v5.54h1.3q.28 0 .47.2.2.18.2.45t-.2.47q-.19.19-.45.19zm8.94.01h-1.3q-.82 0-1.4-.58-.59-.57-.59-1.38V10.2h-.67q-.27 0-.46-.19-.19-.18-.19-.46t.19-.46q.2-.2.46-.2h.69V7.3q0-.27.19-.46.2-.2.46-.2t.46.2q.2.2.2.46v1.6h2.63q.27 0 .46.2.2.2.2.46 0 .27-.2.46-.2.2-.46.2h-2.65v4.24q0 .26.2.46t.47.2h1.28q.52 0 .7-.57.17-.57.66-.57.29 0 .46.2.2.18.2.47 0 .6-.57 1.19-.55.58-1.42.58zm11.63-5.06v1.59q0 .26-.2.46t-.46.2h-4.63v.37q0 .34.3.57l.37.32q.32.24.6.24h3.36q.27 0 .46.2.2.18.2.46 0 .26-.2.46t-.46.2h-3.45q-.34 0-.72-.15-.38-.15-.56-.3l-.58-.52q-.27-.22-.46-.6-.18-.4-.18-.72v-3q0-.26.2-.7.2-.43.5-.67l.55-.43q.53-.44 1.19-.44H86q.69 0 1.3.58l.5.47q.53.47.53 1.41zm-5.27-.1v1.02h3.97v-.92q0-.36-.22-.56l-.38-.33q-.3-.24-.53-.24h-1.65q-.3 0-.55.2l-.38.33q-.26.2-.26.5zm14.26 5.16h-2.8q-.74 0-1.26-.44l-1.27-1.1q-.6-.52-.6-1.38v-1.7q-.04-.84.68-1.46l1.14-.99q.55-.45 1.19-.45h2.93q.28 0 .46.2.2.18.2.46t-.2.46q-.18.2-.46.2h-2.81q-.26 0-.5.2l-1.06.9q-.25.22-.25.58v1.6q0 .26.2.44l1.15.98q.22.2.58.2h2.68q.26 0 .46.19.2.18.2.46 0 .27-.2.46-.19.2-.46.2zm5.62-4.72h2.57q.2 0 .6.1l-.01-.93q0-.28-.2-.46-.18-.2-.46-.2h-2.48q-.27 0-.46-.2-.2-.19-.2-.45 0-.28.2-.46.19-.2.46-.2h2.48q.81 0 1.38.57.58.57.6 1.4l.17 4.9q0 .27-.2.46-.2.2-.46.2-.28 0-.47-.2-.2-.2-.2-.46l-1.1.65h-2.22q-.82 0-1.4-.58-.58-.57-.58-1.4v-.76q0-.82.58-1.4t1.4-.58zm3.27 2.55l-.03-.56q-.01-.28-.2-.46-.19-.19-.46-.19h-2.58q-.27 0-.47.2-.18.18-.18.45v.74q0 .26.2.46.19.2.45.2h1.85z"
         aria-label="miteca"
         font-family="OCR A Extended"
         font-size="70.56"
         font-weight="400"
         letter-spacing="0"
         style="-inkscape-font-specification:'OCR A Extended, Normal';font-variant-ligatures:normal;font-variant-caps:normal;font-variant-numeric:normal;font-variant-east-asian:normal;fill:#ffffff"
         id="path10" />
    </g>
    <path
       fill="#55d400"
       stroke="#d1d1d1"
       stroke-linecap="round"
       stroke-linejoin="round"
       stroke-width="1.292328"
       d="M23.78 15.64c-1.2-.05-1.42-.08-1.62-.23-.62-.45-3.2-4.93-3.2-5.53 0-.42 1.87-3.83 2.78-5.07.32-.43.45-.54.72-.6.52-.1 5.75-.07 6.02.04.14.06.44.4.75.86l.5.76-.14.4c-.07.22-.16.4-.18.4-.03 0-.26-.35-.52-.79-.53-.89-.65-1-1-.87-.18.06-.24.14-.26.37-.02.23.1.53.7 1.54l.72 1.25-.09.5c-.14.87-.02 2.87.22 3.81.12.45.28.96.36 1.14.13.33.13.34-.15.8-.15.26-.42.62-.58.8-.28.3-.33.32-.94.37-1.13.09-2.66.1-4.09.05zm4.5-.95c.13-.14.13-.6 0-.74-.08-.07-.8-.1-2.75-.1-2.34 0-2.67.02-2.8.14-.2.18-.2.44-.02.64.13.15.33.16 2.8.16 1.96 0 2.7-.03 2.77-.1zm-7.22-4.92c.48-.77 2.45-4.25 2.45-4.34 0-.4-.6-.62-.88-.32-.32.36-2.54 4.33-2.54 4.54 0 .3.15.44.49.44.23 0 .31-.06.48-.32zm12.4 5.6c-.87-.9-1.2-1.42-1.94-3.15-.4-.9-.4-2.82-.02-4.12.2-.71.8-2.05.97-2.15.04-.02.66.55 1.39 1.28C35 8.38 35.2 8.55 35.45 8.55c.28 0 .54-.24.54-.5 0-.07-.64-.78-1.43-1.57l-1.43-1.45.59-.55.59-.55.34.32c.64.62 1.96 2.2 2.51 3.04.63.95 1.01 1.79 1.1 2.43.16 1.2-.9 2.97-3.11 5.26-.54.55-1 1-1.04 1-.03 0-.33-.27-.65-.61z"
       paint-order="stroke fill markers"
       id="path14"
       style="stroke:#ffffff;stroke-opacity:1;fill:#67ad39;fill-opacity:1" />
    <path
       fill="#59f"
       stroke="#d1d1d1"
       stroke-linecap="round"
       stroke-linejoin="round"
       stroke-width="1.292328"
       d="M37.44 17.57c-.93-.21-2.4-.8-2.4-.96 0-.04.33-.4.72-.8 1.84-1.87 3.05-3.6 3.4-4.87.47-1.75-.5-3.83-3.19-6.76l-.75-.82.6-.27a7.78 7.78 0 016.28.02 7.67 7.67 0 014.37 5.42 8.85 8.85 0 01-.18 3.7 7.76 7.76 0 01-5.36 5.21c-.83.24-2.69.3-3.49.13z"
       paint-order="stroke fill markers"
       id="path16"
       style="stroke:#ffffff;stroke-opacity:1" />
    <g
       style="line-height:1.25;-inkscape-font-specification:'OCR A Extended, Normal';font-variant-ligatures:normal;font-variant-caps:normal;font-variant-numeric:normal;font-variant-east-asian:normal"
       id="g20">
      <path
         fill="#d7f229"
         stroke-width=".08"
         d="M51.7 22.98v-.17l-.7-1.02v4.17q0 .15-.1.25t-.25.1q-.14 0-.25-.1-.1-.1-.1-.25v-5.13h.9l.85 1.24.88-1.24h.88v5.13q0 .15-.11.25-.1.1-.25.1-.14 0-.24-.1-.1-.1-.1-.25V21.8l-.7 1v.18q0 .14-.1.25-.11.1-.25.1t-.25-.1q-.1-.1-.1-.25zm4.73.83h1.36q.11 0 .32.05v-.49q0-.14-.11-.24-.1-.1-.24-.1h-1.32q-.14 0-.24-.1-.1-.11-.1-.25t.1-.24q.1-.1.24-.1h1.32q.42 0 .73.3.3.3.31.73l.09 2.6q0 .14-.1.24-.1.1-.25.1t-.25-.1q-.1-.1-.1-.25l-.59.35h-1.17q-.43 0-.74-.3-.3-.31-.3-.75v-.4q0-.43.3-.74.31-.3.74-.3zm1.73 1.35l-.02-.3q0-.14-.1-.24-.1-.1-.24-.1h-1.37q-.14 0-.24.1-.1.1-.1.25v.38q0 .14.1.25.1.1.24.1h.98zm4.77 1.14h-.7q-.42 0-.73-.3t-.31-.73v-2.24h-.36q-.14 0-.24-.1-.1-.1-.1-.25 0-.14.1-.24.1-.1.24-.1h.37v-.86q0-.14.1-.24.1-.1.24-.1.14 0 .24.1.1.1.1.24v.85h1.4q.14 0 .24.1.1.1.1.25 0 .14-.1.25-.1.1-.24.1h-1.4v2.24q0 .14.1.24.11.1.25.1h.68q.28 0 .37-.29.09-.3.35-.3.15 0 .24.1.1.1.1.25 0 .32-.3.63-.29.3-.74.3zm3.69-2.49h1.35q.12 0 .33.05l-.01-.49q0-.14-.1-.24-.1-.1-.25-.1h-1.31q-.14 0-.25-.1-.1-.11-.1-.25t.1-.24q.1-.1.25-.1h1.31q.43 0 .73.3t.32.73l.08 2.6q0 .14-.1.24-.1.1-.24.1-.15 0-.25-.1t-.1-.25l-.6.35h-1.16q-.44 0-.74-.3-.3-.31-.3-.75v-.4q0-.43.3-.74.3-.3.74-.3zm1.73 1.35l-.02-.3q0-.14-.1-.24-.1-.1-.25-.1h-1.36q-.15 0-.25.1t-.1.25v.38q0 .14.1.25.1.1.25.1h.97zm7.45.67l1.4-4.74q.08-.26.34-.26t.32.22l1.38 4.81.02.1q0 .15-.1.25t-.23.1q-.27 0-.34-.25l-.28-.94h-1.58l-.3 1q-.02.07-.1.13-.1.06-.2.06-.16 0-.26-.1t-.1-.25q0-.07.02-.13zm1.73-3.4l-.59 1.99h1.17zm6.13 3.87h-2.1q-.14 0-.24-.1-.1-.1-.1-.24 0-.15.1-.25t.25-.1h.69v-4.08h-.7q-.15 0-.25-.1t-.1-.25q0-.14.1-.24.1-.1.25-.1h1.05q.14 0 .25.1.1.1.1.24v4.43h.7q.14 0 .24.1.1.1.1.25 0 .14-.1.25-.1.1-.24.1zm4.73 0h-.7q-.42 0-.73-.3-.3-.3-.3-.73v-2.24h-.36q-.15 0-.25-.1t-.1-.25q0-.14.1-.24.1-.1.25-.1h.36v-.86q0-.14.1-.24.1-.1.25-.1.13 0 .23.1.11.1.11.24v.85h1.4q.13 0 .24.1.1.1.1.25 0 .14-.1.25-.1.1-.25.1h-1.4v2.24q0 .14.1.24.11.1.26.1h.67q.28 0 .37-.29.1-.3.35-.3.15 0 .25.1t.1.25q0 .32-.3.63-.3.3-.75.3zm3.69-2.49h1.36q.1 0 .32.05l-.01-.49q0-.14-.1-.24-.1-.1-.25-.1h-1.3q-.14 0-.24-.1-.1-.11-.1-.25t.1-.24q.1-.1.24-.1h1.31q.43 0 .73.3t.32.73l.09 2.6q0 .14-.1.24-.1.1-.25.1t-.25-.1q-.1-.1-.1-.25l-.59.35h-1.17q-.44 0-.74-.3-.3-.31-.3-.75v-.4q0-.43.3-.74.3-.3.74-.3zm1.73 1.35l-.02-.3q0-.14-.1-.24-.1-.1-.24-.1h-1.37q-.14 0-.25.1-.1.1-.1.25v.38q0 .14.1.25.11.1.25.1h.98zm-1.07-3.6l-1.1.52q-.08.03-.16.03-.14 0-.24-.1-.1-.11-.1-.25 0-.22.2-.31l1.26-.58q.08-.04.14-.04.09 0 .16.04l1.26.58q.2.1.2.31 0 .14-.1.25-.1.1-.25.1-.07 0-.15-.03zm5.04 1.58l-.94.61v2.21q0 .14-.1.25-.11.1-.25.1t-.24-.1q-.1-.1-.1-.25v-3.28q0-.14.1-.25.1-.1.24-.1.14 0 .24.1.1.1.1.25v.23l.64-.38q.31-.2.71-.2h.32q.42 0 .72.29t.31.72l.1 2.62q0 .14-.1.25-.1.1-.25.1-.13 0-.24-.1-.1-.09-.1-.25l-.1-2.58q-.02-.36-.38-.36h-.34q-.16 0-.34.12zm5.89 3.16h-.7q-.42 0-.73-.3t-.31-.73v-2.24h-.36q-.14 0-.24-.1-.1-.1-.1-.25 0-.14.1-.24.1-.1.24-.1h.37v-.86q0-.14.1-.24.1-.1.24-.1.14 0 .24.1.1.1.1.24v.85h1.4q.14 0 .24.1.1.1.1.25 0 .14-.1.25-.1.1-.24.1h-1.4v2.24q0 .14.1.24.11.1.26.1h.67q.28 0 .37-.29.09-.3.35-.3.15 0 .25.1t.1.25q0 .32-.3.63-.3.3-.75.3zm4.04-5.77h.37q.14 0 .24.1.1.1.1.24v.3q0 .15-.1.25t-.24.1h-.37q-.15 0-.26-.1-.1-.1-.1-.24l.02-.3q0-.15.1-.25t.24-.1zm1.41 5.77h-2.1q-.15 0-.25-.1t-.1-.24q0-.15.1-.25t.24-.1h.71v-2.58h-.7q-.14 0-.25-.1-.1-.11-.1-.25t.1-.25q.1-.1.25-.1h1.06q.14 0 .24.1.1.1.1.25v2.93h.7q.14 0 .24.1.1.1.1.25 0 .14-.1.24-.1.1-.24.1zm5.45 0h-1.48q-.4 0-.67-.23l-.67-.58q-.32-.27-.32-.73v-.9q-.02-.44.36-.76l.6-.53q.3-.24.63-.24h1.56q.14 0 .24.1.1.1.1.25t-.1.25q-.1.1-.24.1h-1.49q-.14 0-.27.1l-.55.48q-.14.12-.14.31v.84q0 .14.1.24l.62.51q.11.1.3.1h1.42q.14 0 .24.11.1.1.1.24 0 .15-.1.25t-.24.1zm2.97-2.49h1.36q.11 0 .32.05v-.49q0-.14-.11-.24-.1-.1-.24-.1h-1.32q-.14 0-.24-.1-.1-.11-.1-.25t.1-.24q.1-.1.24-.1h1.32q.43 0 .73.3t.31.73l.09 2.6q0 .14-.1.24-.1.1-.25.1-.14 0-.25-.1-.1-.1-.1-.25l-.59.35h-1.17q-.43 0-.74-.3-.3-.31-.3-.75v-.4q0-.43.3-.74.31-.3.74-.3zm1.73 1.35l-.02-.3q0-.14-.1-.24-.1-.1-.24-.1h-1.37q-.14 0-.24.1-.1.1-.1.25v.38q0 .14.1.25.1.1.24.1h.98z"
         aria-label="Mata Altântica"
         font-family="OCR A Extended"
         font-size="3.11"
         font-weight="400"
         letter-spacing="0"
         style="-inkscape-font-specification:'OCR A Extended, Normal';font-variant-ligatures:normal;font-variant-caps:normal;font-variant-numeric:normal;font-variant-east-asian:normal"
         id="path18" />
    </g>
  </g>
</svg>
