<?xml version="1.0" encoding="UTF-8" standalone="no"?>
<svg
   xmlns:dc="http://purl.org/dc/elements/1.1/"
   xmlns:cc="http://creativecommons.org/ns#"
   xmlns:rdf="http://www.w3.org/1999/02/22-rdf-syntax-ns#"
   xmlns:svg="http://www.w3.org/2000/svg"
   xmlns="http://www.w3.org/2000/svg"
   xmlns:sodipodi="http://sodipodi.sourceforge.net/DTD/sodipodi-0.dtd"
   xmlns:inkscape="http://www.inkscape.org/namespaces/inkscape"
   inkscape:version="1.0 (4035a4fb49, 2020-05-01)"
   sodipodi:docname="logo_OperaGeo.svg"
   id="svg985"
   version="1.1"
   viewBox="0 0 190.283 53.352516"
   height="53.352516mm"
   width="190.283mm">
  <defs
     id="defs979" />
  <sodipodi:namedview
     fit-margin-bottom="0"
     fit-margin-right="0"
     fit-margin-left="0"
     fit-margin-top="0"
     inkscape:window-maximized="1"
     inkscape:window-y="-9"
     inkscape:window-x="-9"
     inkscape:window-height="1001"
     inkscape:window-width="1920"
     showgrid="false"
     inkscape:document-rotation="0"
     inkscape:current-layer="layer1"
     inkscape:document-units="mm"
     inkscape:cy="142.87606"
     inkscape:cx="407.40665"
     inkscape:zoom="1.4"
     inkscape:pageshadow="2"
     inkscape:pageopacity="0.0"
     borderopacity="1.0"
     bordercolor="#666666"
     pagecolor="#ffffff"
     id="base" />
  <metadata
     id="metadata982">
    <rdf:RDF>
      <cc:Work
         rdf:about="">
        <dc:format>image/svg+xml</dc:format>
        <dc:type
           rdf:resource="http://purl.org/dc/dcmitype/StillImage" />
        <dc:title></dc:title>
        <dc:title></dc:title>
      </cc:Work>
    </rdf:RDF>
  </metadata>
  <g
     transform="translate(-10.691827,-121.49041)"
     id="layer1"
     inkscape:groupmode="layer"
     inkscape:label="Layer 1">
    <g
       transform="matrix(0.26458333,0,0,0.26458333,138.23496,-27.923096)"
       id="g954">
      <path
         style="fill:#cfdbe7;stroke-width:0.32"
         d="m 38.828351,756.07535 c 0.0064,-0.528 0.07824,-0.70526 0.159392,-0.39391 0.08112,0.31135 0.07581,0.74335 -0.01184,0.96 -0.08765,0.21665 -0.154016,-0.0381 -0.14752,-0.56609 z m 183.002879,-8.02667 c 0.0154,-0.37278 0.0912,-0.4486 0.19334,-0.19333 0.0924,0.231 0.0811,0.507 -0.0253,0.61333 -0.10633,0.10634 -0.18198,-0.0827 -0.16809,-0.42 z m -327.65472,-8.45333 c 0,-0.44 0.0726,-0.62 0.16141,-0.4 0.0888,0.22 0.0888,0.58 0,0.8 -0.0888,0.22 -0.16141,0.04 -0.16141,-0.4 z m 203.81472,-0.18667 c 0.01536,-0.37278 0.0912,-0.4486 0.193344,-0.19333 0.09245,0.231 0.08109,0.507 -0.02528,0.61333 -0.106336,0.10634 -0.181984,-0.0827 -0.168096,-0.42 z m -58.879999,-1.6 c 0.01536,-0.37278 0.0912,-0.44861 0.193344,-0.19333 0.09245,0.231 0.08109,0.507 -0.02528,0.61333 -0.106336,0.10634 -0.181984,-0.0827 -0.168096,-0.42 z m -80.185247,-2.05333 c 0.31856,-0.352 0.6512,-0.64 0.7392,-0.64 0.088,0 -0.10064,0.288 -0.4192,0.64 -0.31856,0.352 -0.6512,0.64 -0.7392,0.64 -0.088,0 0.10064,-0.288 0.4192,-0.64 z m 42.0799993,0.19918 c 0,-0.0664 0.252,-0.31845 0.56,-0.56 0.507552,-0.39804 0.518848,-0.38672 0.120832,0.12082 -0.418048,0.53304 -0.680832,0.70255 -0.680832,0.43918 z m -25.4399993,-8.83918 c 0.31856,-0.352 0.6512,-0.64 0.7392,-0.64 0.088,0 -0.10064,0.288 -0.4192,0.64 -0.31856,0.352 -0.6512,0.64 -0.7392,0.64 -0.088,0 0.10064,-0.288 0.4192,-0.64 z m -122.639994,-16.88 c 68.595994,-0.0444 180.843993,-0.0444 249.43999,0 68.596,0.0444 12.472,0.0808 -124.719996,0.0808 -137.191994,0 -193.315994,-0.0364 -124.719994,-0.0808 z m -250.56,-6.06059 c 0.308,-0.0805 0.812,-0.0805 1.12,0 0.308,0.0805 0.056,0.14635 -0.56,0.14635 -0.616,0 -0.868,-0.0659 -0.56,-0.14635 z m 2.56,0 c 0.308,-0.0805 0.812,-0.0805 1.12,0 0.308,0.0805 0.056,0.14635 -0.56,0.14635 -0.616,0 -0.868,-0.0659 -0.56,-0.14635 z m -3.98,-6.07801 c 0.231,-0.0924 0.507,-0.0811 0.61333,0.0252 0.10634,0.10633 -0.0827,0.18196 -0.42,0.16807 -0.37278,-0.0154 -0.4486,-0.0912 -0.19333,-0.19333 z m 7.04,0 c 0.231,-0.0924 0.507,-0.0811 0.61333,0.0252 0.10634,0.10633 -0.0827,0.18196 -0.42,0.16807 -0.37278,-0.0154 -0.4486,-0.0912 -0.19333,-0.19333 z m 410.879993,0 c 0.231008,-0.0924 0.507008,-0.0811 0.613344,0.0252 0.106336,0.10633 -0.08269,0.18196 -0.42,0.16807 -0.3728,-0.0154 -0.448608,-0.0912 -0.193344,-0.19333 z m -354.029813,-21.3814 c 4e-5,-10.56 0.0404,-14.83367 0.0897,-9.49704 0.0493,5.33663 0.0493,13.97663 -7e-5,19.2 -0.0493,5.22337 -0.0896,0.85704 -0.0896,-9.70296 z m 151.34264,13.28 c 0,-3.256 0.0475,-4.588 0.1056,-2.96 0.0581,1.628 0.0581,4.292 0,5.92 -0.0581,1.628 -0.1056,0.296 -0.1056,-2.96 z m 348.47677,-2.96 -0.6096,-0.72 0.72,0.60959 c 0.67661,0.57287 0.86566,0.83041 0.6096,0.83041 -0.0607,0 -0.38473,-0.324 -0.72,-0.72 z m -1.75382,-1.76 -0.77578,-0.88 0.88,0.77578 c 0.484,0.42668 0.88,0.82268 0.88,0.88 0,0.25096 -0.25913,0.0467 -0.98422,-0.77578 z m -560.21577,0.33941 c 0.308,-0.0805 0.812,-0.0805 1.12,0 0.308,0.0805 0.056,0.14635 -0.56,0.14635 -0.616,0 -0.868,-0.0659 -0.56,-0.14635 z m 2.88,0 c 0.308,-0.0805 0.812,-0.0805 1.12,0 0.308,0.0805 0.056,0.14635 -0.56,0.14635 -0.616,0 -0.868,-0.0659 -0.56,-0.14635 z m 415.039993,0 c 0.308,-0.0805 0.812,-0.0805 1.12,0 0.308,0.0805 0.056,0.14635 -0.56,0.14635 -0.616,0 -0.868,-0.0659 -0.56,-0.14635 z m 2.88,0 c 0.308,-0.0805 0.812,-0.0805 1.12,0 0.308,0.0805 0.056,0.14635 -0.56,0.14635 -0.616,0 -0.868,-0.0659 -0.56,-0.14635 z m 167.539997,0.002 c 0.23101,-0.0924 0.50701,-0.0811 0.61334,0.0253 0.10634,0.10633 -0.0827,0.18196 -0.42,0.16807 -0.3728,-0.0154 -0.4486,-0.0912 -0.19334,-0.19333 z m 8.32,0 c 0.23101,-0.0924 0.50701,-0.0811 0.61334,0.0253 0.10634,0.10633 -0.0827,0.18196 -0.42,0.16807 -0.3728,-0.0154 -0.4486,-0.0912 -0.19334,-0.19333 z m -437.55875,-10.82133 c 1.5e-4,-5.104 0.0443,-7.1472 0.0982,-4.54043 0.0538,2.60677 0.0537,6.78277 -2.7e-4,9.28 -0.054,2.49724 -0.0981,0.36443 -0.0979,-4.73957 z m 331.2,0 c 1.6e-4,-5.104 0.04432,-7.1472 0.09818,-4.54043 0.05386,2.60677 0.05373,6.78277 -2.88e-4,9.28 -0.05398,2.49724 -0.09805,0.36443 -0.09789,-4.73957 z m -164.701246,4.40023 c 4.62,-0.05 12.18,-0.05 16.8,0 4.62,0.05 0.84,0.0909 -8.4,0.0909 -9.24,0 -13.02,-0.0409 -8.4,-0.0909 z m 114.319999,-0.52105 c 0,-0.0665 0.252,-0.31845 0.56,-0.56 0.507552,-0.39804 0.518848,-0.38672 0.120832,0.12082 -0.418048,0.53304 -0.680832,0.70255 -0.680832,0.43918 z m -417.279993,-0.32 c 0,-0.0665 0.252,-0.31845 0.56,-0.56 0.50754,-0.39804 0.51886,-0.38672 0.12082,0.12082 -0.41804,0.53304 -0.68082,0.70255 -0.68082,0.43918 z m 547.81577,-0.75918 -0.77578,-0.88 0.88,0.77577 c 0.484,0.42669 0.88,0.82269 0.88,0.88 0,0.25097 -0.25914,0.0467 -0.98422,-0.77577 z m -545.57577,-1.48082 c 0,-0.0665 0.252,-0.31845 0.56,-0.56 0.50754,-0.39804 0.51886,-0.38672 0.12082,0.12082 -0.41804,0.53304 -0.68082,0.70255 -0.68082,0.43918 z m 89.86,-9.05778 c 0.231,-0.0924 0.507,-0.0811 0.61333,0.0252 0.10633,0.10633 -0.0827,0.18196 -0.42,0.16807 -0.37278,-0.0154 -0.44861,-0.0912 -0.19333,-0.19333 z m 519.44524,-1.88807 c 0.0154,-0.37278 0.0912,-0.44861 0.19334,-0.19334 0.0924,0.231 0.0811,0.50701 -0.0253,0.61334 -0.10633,0.10633 -0.18198,-0.0827 -0.16809,-0.42 z m -13.12,-0.96 c 0.0154,-0.37278 0.0912,-0.44861 0.19334,-0.19334 0.0925,0.231 0.0811,0.50701 -0.0253,0.61334 -0.10633,0.10633 -0.18198,-0.0827 -0.16809,-0.42 z m -70.01373,-2.53334 c 0.003,-0.88 0.0645,-1.20201 0.13811,-0.7156 0.0735,0.48642 0.0716,1.20642 -0.004,1.6 -0.0759,0.39359 -0.13612,-0.004 -0.13372,-0.8844 z m -421.85151,-1.24081 c 0,-0.0665 0.252,-0.31845 0.56,-0.56 0.50754,-0.39804 0.51885,-0.38672 0.12082,0.12081 -0.41804,0.53304 -0.68082,0.70256 -0.68082,0.43919 z m 299.940921,-0.11882 c 3.31152,-0.0521 8.63952,-0.052 11.84,1.8e-4 3.20048,0.0521 0.491072,0.0947 -6.020928,0.0946 -6.512,-10e-5 -9.130592,-0.0428 -5.819072,-0.0948 z m 191.924319,-0.90711 c 0.0154,-0.37278 0.0912,-0.44861 0.19334,-0.19334 0.0925,0.231 0.0811,0.50701 -0.0253,0.61334 -0.10633,0.10633 -0.18198,-0.0827 -0.16809,-0.42 z m 13.12,-0.96 c 0.0154,-0.37278 0.0912,-0.44861 0.19334,-0.19334 0.0924,0.231 0.0811,0.50701 -0.0253,0.61334 -0.10633,0.10633 -0.18198,-0.0827 -0.16809,-0.42 z m -259.814718,-3.65334 c 0,-0.44 0.07264,-0.62 0.161408,-0.4 0.08877,0.22 0.08877,0.58 0,0.8 -0.08877,0.22 -0.161408,0.04 -0.161408,-0.4 z m -298.547412,0.15023 c 0.21251,-0.21252 36.79542,-0.19836 37.0081,0.0143 0.0855,0.0855 -8.24455,0.15544 -18.51121,0.15544 -10.26667,0 -18.59027,-0.0764 -18.49689,-0.16977 z m 171.53689,-0.07 c 4.884,-0.0497 12.876,-0.0497 17.76,0 4.884,0.0497 0.888,0.0903 -8.88,0.0903 -9.768,0 -13.764,-0.0406 -8.88,-0.0903 z m 140.4742334,-1.36022 c 0,-0.616 0.065856,-0.868 0.146336,-0.56 0.080512,0.308 0.080512,0.812 0,1.12 -0.08048,0.308 -0.146336,0.056 -0.146336,-0.56 z m -228.7378734,-6.88 c 2.4e-4,-3.872 0.0464,-5.41202 0.10269,-3.42226 0.0562,1.98976 0.056,5.15776 -3.2e-4,7.04 -0.0565,1.88225 -0.10249,0.25426 -0.10225,-3.61774 z m 331.199984,0 c 2.56e-4,-3.872 0.04646,-5.41202 0.102688,-3.42226 0.05626,1.98976 0.05603,5.15776 0,7.04 -0.05648,1.88225 -0.102496,0.25426 -0.102272,-3.61774 z m -102.4556466,4.48 c 0.00352,-0.704 0.069088,-0.95432 0.145632,-0.55626 0.076544,0.39805 0.073632,0.97405 -0.0064,1.28 -0.080096,0.30594 -0.14272,-0.0198 -0.139168,-0.72374 z m -13.4583354,-1.28 c 0.0064,-0.528 0.07824,-0.70526 0.159392,-0.39391 0.08112,0.31135 0.07581,0.74335 -0.01184,0.96 -0.08765,0.21665 -0.154016,-0.0381 -0.14752,-0.56609 z m -327.077102,-1.94667 c 0.0154,-0.37279 0.0912,-0.44861 0.19333,-0.19334 0.0924,0.231 0.0811,0.50701 -0.0252,0.61334 -0.10634,0.10633 -0.18197,-0.0827 -0.16808,-0.42 z m 73.6,-0.64 c 0.0154,-0.37279 0.0912,-0.44861 0.19333,-0.19334 0.0924,0.231 0.0811,0.50701 -0.0253,0.61334 -0.10633,0.10633 -0.18196,-0.0827 -0.16807,-0.42 z m 493.87966,-1.17334 -1.26493,-1.36 1.36,1.26495 c 1.2648,1.17638 1.50704,1.45505 1.26493,1.45505 -0.0523,0 -0.66426,-0.612 -1.36,-1.36 z m -552.64264,-8.72 c -1.3e-4,-5.456 0.0435,-7.73298 0.097,-5.05997 0.0535,2.67302 0.0536,7.13702 2.4e-4,9.92 -0.0533,2.78299 -0.0971,0.59597 -0.0972,-4.86003 z m 508.33771,8.64 c 0.41334,-0.44 0.82355,-0.8 0.91155,-0.8 0.088,0 -0.17821,0.36 -0.59155,0.8 -0.41334,0.44 -0.82355,0.8 -0.91155,0.8 -0.088,0 0.17821,-0.36 0.59155,-0.8 z m -11.52,-6.36082 c 0,-0.0664 0.252,-0.31844 0.56,-0.56 0.50755,-0.39803 0.51885,-0.38672 0.12083,0.12082 -0.41804,0.53304 -0.68083,0.70256 -0.68083,0.43918 z m -348.34661,-6.11918 c 3.1e-4,-3.344 0.0477,-4.66852 0.10538,-2.94338 0.0576,1.72515 0.0574,4.46115 -6.4e-4,6.08 -0.058,1.61886 -0.10513,0.20738 -0.10482,-3.13662 z m 331.19999,0 c 3.2e-4,-3.344 0.0477,-4.66852 0.10537,-2.94338 0.0577,1.72515 0.0574,4.46115 0,6.08 -0.0579,1.61886 -0.10512,0.20738 -0.10483,-3.13662 z m 46.52662,4.42141 c 0.23101,-0.0924 0.50701,-0.0811 0.61334,0.0252 0.10634,0.10633 -0.0827,0.18196 -0.42,0.16807 -0.3728,-0.0154 -0.4486,-0.0912 -0.19334,-0.19333 z m -26.5,-1.18223 c 0,-0.0664 0.252,-0.31844 0.56,-0.56 0.50755,-0.39803 0.51885,-0.38672 0.12083,0.12082 -0.41804,0.53304 -0.68083,0.70256 -0.68083,0.43918 z m -432.36081,-2.67918 c -0.39804,-0.50754 -0.38672,-0.51885 0.12082,-0.12082 0.53304,0.41804 0.70255,0.68082 0.43918,0.68082 -0.0664,0 -0.31845,-0.252 -0.56,-0.56 z m -1.28,-1.28 c -0.39804,-0.50754 -0.38672,-0.51885 0.12082,-0.12082 0.53304,0.41804 0.70255,0.68082 0.43918,0.68082 -0.0665,0 -0.31845,-0.252 -0.56,-0.56 z m 269.16081329,-5.04 c 0.597056,-0.616 1.15753601,-1.12 1.24553601,-1.12 0.088,0 -0.32848002,0.504 -0.92553601,1.12 -0.59705599,0.616 -1.15753598,1.12 -1.24553598,1.12 -0.088,0 0.32847999,-0.504 0.92553598,-1.12 z m -373.14421329,-0.08 -0.77578,-0.88 0.88,0.77578 c 0.82249,0.72509 1.02675,0.98422 0.77578,0.98422 -0.0573,0 -0.45332,-0.396 -0.88,-0.88 z m 417.753813,-0.16 -0.6096,-0.72 0.72,0.6096 c 0.676608,0.57287 0.865664,0.8304 0.6096,0.8304 -0.06074,0 -0.384736,-0.324 -0.72,-0.72 z m 146.670397,-1.73193 c 0.22,-0.0888 0.58,-0.0888 0.8,0 0.22,0.0888 0.04,0.16141 -0.4,0.16141 -0.44,0 -0.62,-0.0726 -0.4,-0.16141 z m 7.36,0 c 0.22,-0.0888 0.58,-0.0888 0.8,0 0.22,0.0888 0.04,0.16141 -0.4,0.16141 -0.44,0 -0.62,-0.0726 -0.4,-0.16141 z m -561.53092,-6.42807 -1.74907,-1.84 1.84,1.74907 c 1.70942,1.62494 1.98659,1.93093 1.74907,1.93093 -0.05,0 -0.87802,-0.828 -1.84,-1.84 z m 351.530923,1.2 c 0.31856,-0.352 0.6512,-0.64 0.7392,-0.64 0.088,0 -0.10064,0.288 -0.4192,0.64 -0.31856,0.352 -0.6512,0.64 -0.7392,0.64 -0.088,0 0.10064,-0.288 0.4192,-0.64 z m -416.479993,-1.44 c 0.41336,-0.44 0.82356,-0.8 0.91156,-0.8 0.088,0 -0.1782,0.36 -0.59156,0.8 -0.41336,0.44 -0.82356,0.8 -0.91156,0.8 -0.088,0 0.1782,-0.36 0.59156,-0.8 z m 419.0399934,-1.12 c 0.31856,-0.352 0.6512,-0.64 0.7392,-0.64 0.088,0 -0.10064,0.288 -0.4192,0.64 -0.31856,0.352 -0.6512,0.64 -0.7392,0.64 -0.088,0 0.10064,-0.288 0.4192,-0.64 z M -396.02961,606.24572 c 0.48642,-0.0736 1.20642,-0.0716 1.6,0.004 0.39358,0.0759 -0.004,0.13613 -0.8844,0.13373 -0.88,-0.003 -1.20202,-0.0645 -0.7156,-0.1381 z m 417.915593,3.2e-4 c 0.484,-0.0733 1.276,-0.0733 1.76,0 0.484,0.0733 0.088,0.13331 -0.88,0.13331 -0.968,0 -1.364,-0.06 -0.88,-0.13331 z m -411.979993,-5.74929 c 0.231,-0.0924 0.507,-0.0811 0.61333,0.0252 0.10634,0.10634 -0.0827,0.18197 -0.42,0.16807 -0.37278,-0.0154 -0.4486,-0.0912 -0.19333,-0.19333 z m 1.36526,-0.28807 c 0.0154,-0.37279 0.0912,-0.44861 0.19333,-0.19334 0.0924,0.231 0.0811,0.507 -0.0252,0.61334 -0.10634,0.10633 -0.18197,-0.0827 -0.16807,-0.42 z"
         id="path906" />
      <path
         style="fill:#cfd0d1;stroke-width:0.32"
         d="m -44.794848,755.67535 c -0.398016,-0.50754 -0.38672,-0.51886 0.120832,-0.12082 0.308,0.24155 0.56,0.49355 0.56,0.56 0,0.26337 -0.262784,0.0939 -0.680832,-0.43918 z m -33.116416,-0.63245 c 0.532032,-0.62885 1.157248,-0.72357 1.157248,-0.17533 0,0.10694 -0.09632,0.0981 -0.214016,-0.0196 -0.117728,-0.11771 -0.513728,0.0383 -0.88,0.34667 -0.664256,0.55923 -0.664416,0.55884 -0.06323,-0.15175 z m 245.257244,-1.90615 c 0.23101,-0.0924 0.50701,-0.0811 0.61334,0.0252 0.10634,0.10633 -0.0827,0.18197 -0.42,0.16807 -0.3728,-0.0154 -0.4486,-0.0912 -0.19334,-0.19333 z M 39.148351,739.11535 c 0.0064,-0.528 0.07824,-0.70526 0.159392,-0.39391 0.08112,0.31135 0.07581,0.74335 -0.01184,0.96 -0.08765,0.21665 -0.154016,-0.0381 -0.14752,-0.56609 z m -85.439999,-0.32 c 0.0064,-0.528 0.07824,-0.70526 0.159392,-0.39391 0.08112,0.31135 0.07581,0.74335 -0.01184,0.96 -0.08765,0.21665 -0.154016,-0.0381 -0.14752,-0.56609 z m -14.462368,-2.84082 c 0,-0.0664 0.252,-0.31845 0.56,-0.56 0.507552,-0.39804 0.518848,-0.38672 0.120832,0.12082 -0.418048,0.53304 -0.680832,0.70255 -0.680832,0.43918 z m 130.719998,-1.15918 c 0.31856,-0.352 0.6512,-0.64 0.7392,-0.64 0.088,0 -0.10064,0.288 -0.4192,0.64 -0.31856,0.352 -0.6512,0.64 -0.7392,0.64 -0.088,0 0.10064,-0.288 0.4192,-0.64 z m -117.96083,-0.88 c -0.398016,-0.50754 -0.38672,-0.51886 0.120832,-0.12082 0.308,0.24155 0.56,0.49355 0.56,0.56 0,0.26337 -0.262784,0.0939 -0.680832,-0.43918 z m -59.539172,-1.5786 c 0.23101,-0.0924 0.50701,-0.0811 0.61335,0.0252 0.10633,0.10633 -0.0827,0.18197 -0.42,0.16807 -0.3728,-0.0154 -0.44861,-0.0912 -0.19335,-0.19333 z m 54.720004,0 c 0.231008,-0.0924 0.507008,-0.0811 0.613344,0.0252 0.106336,0.10633 -0.08269,0.18197 -0.42,0.16807 -0.3728,-0.0154 -0.448608,-0.0912 -0.193344,-0.19333 z m 19.84,0 c 0.231008,-0.0924 0.507008,-0.0811 0.613344,0.0252 0.106336,0.10633 -0.08269,0.18197 -0.42,0.16807 -0.3728,-0.0154 -0.448608,-0.0912 -0.193344,-0.19333 z m 22.079999,0 c 0.231008,-0.0924 0.507008,-0.0811 0.613344,0.0252 0.106336,0.10633 -0.08269,0.18197 -0.42,0.16807 -0.3728,-0.0154 -0.448608,-0.0912 -0.193344,-0.19333 z m 19.8400002,0 c 0.231008,-0.0924 0.507008,-0.0811 0.613344,0.0252 0.106336,0.10633 -0.082688,0.18197 -0.42,0.16807 -0.3728,-0.0154 -0.448608,-0.0912 -0.193344,-0.19333 z m 55.0399988,0 c 0.231008,-0.0924 0.507008,-0.0811 0.613344,0.0252 0.106336,0.10633 -0.08269,0.18197 -0.42,0.16807 -0.3728,-0.0154 -0.448608,-0.0912 -0.193344,-0.19333 z m 11.52,0 c 0.231008,-0.0924 0.507008,-0.0811 0.613344,0.0252 0.106336,0.10633 -0.08269,0.18197 -0.42,0.16807 -0.3728,-0.0154 -0.448608,-0.0912 -0.193344,-0.19333 z m 53.439998,0 c 0.23101,-0.0924 0.50701,-0.0811 0.61335,0.0252 0.10633,0.10633 -0.0827,0.18197 -0.42,0.16807 -0.3728,-0.0154 -0.44861,-0.0912 -0.19335,-0.19333 z m 57.92,0 c 0.23101,-0.0924 0.50701,-0.0811 0.61334,0.0252 0.10634,0.10633 -0.0827,0.18197 -0.42,0.16807 -0.3728,-0.0154 -0.4486,-0.0912 -0.19334,-0.19333 z m 30.72,0 c 0.23101,-0.0924 0.50701,-0.0811 0.61334,0.0252 0.10634,0.10633 -0.0827,0.18197 -0.42,0.16807 -0.3728,-0.0154 -0.4486,-0.0912 -0.19334,-0.19333 z m -355.29999,-4.5814 c 0.31856,-0.352 0.6512,-0.64 0.7392,-0.64 0.088,0 -0.10064,0.288 -0.4192,0.64 -0.31856,0.352 -0.6512,0.64 -0.7392,0.64 -0.088,0 0.10064,-0.288 0.4192,-0.64 z m -261.36,-23.57193 c 0.22,-0.0888 0.58,-0.0888 0.8,0 0.22,0.0888 0.04,0.1614 -0.4,0.1614 -0.44,0 -0.62,-0.0726 -0.4,-0.1614 z m 5.76,0 c 0.22,-0.0888 0.58,-0.0888 0.8,0 0.22,0.0888 0.04,0.1614 -0.4,0.1614 -0.44,0 -0.62,-0.0726 -0.4,-0.1614 z"
         id="path904" />
      <path
         style="fill:#b1c4d7;stroke-width:0.32"
         d="m -397.94792,698.09359 c 0.31135,-0.0811 0.74335,-0.0758 0.96,0.0119 0.21665,0.0877 -0.0381,0.15404 -0.56609,0.14752 -0.528,-0.007 -0.70526,-0.0782 -0.39391,-0.15937 z m 4.48,0 c 0.31135,-0.0811 0.74335,-0.0758 0.96,0.0119 0.21665,0.0877 -0.0381,0.15404 -0.56609,0.14752 -0.528,-0.007 -0.70526,-0.0782 -0.39391,-0.15937 z m 413.439983,0 c 0.31136,-0.0811 0.74336,-0.0758 0.96,0.0119 0.216672,0.0877 -0.03808,0.15404 -0.56608,0.14752 -0.528,-0.007 -0.705248,-0.0782 -0.39392,-0.15937 z m 4.63392,0.01 c 0.22,-0.0888 0.58,-0.0888 0.8,0 0.22,0.0888 0.04,0.16141 -0.4,0.16141 -0.44,0 -0.62,-0.0726 -0.4,-0.16141 z M -283.53401,667.05675 c 0.231,-0.0924 0.507,-0.0811 0.61333,0.0252 0.10633,0.10633 -0.0827,0.18196 -0.42,0.16807 -0.37278,-0.0154 -0.44861,-0.0912 -0.19333,-0.19333 z m 450.39589,-5.22141 c 0,-0.968 0.06,-1.364 0.13332,-0.88 0.0733,0.484 0.0733,1.276 0,1.76 -0.0734,0.484 -0.13332,0.088 -0.13332,-0.88 z m -275.6159,0.21987 c 0,-0.0551 0.468,-0.52307 1.04,-1.04 l 1.04,-0.93987 -0.93987,1.04 c -0.87609,0.96943 -1.14013,1.18709 -1.14013,0.93987 z m -160.15999,-0.85987 c 0.31855,-0.352 0.65119,-0.64 0.73919,-0.64 0.088,0 -0.10064,0.288 -0.41919,0.64 -0.31856,0.352 -0.6512,0.64 -0.7392,0.64 -0.088,0 0.10064,-0.288 0.4192,-0.64 z m -81.09474,-5.30666 c 0.0154,-0.37279 0.0912,-0.44861 0.19333,-0.19334 0.0924,0.231 0.0811,0.50701 -0.0252,0.61334 -0.10634,0.10633 -0.18197,-0.0827 -0.16808,-0.42 z m 340.4799814,-0.96 c 0.01536,-0.37279 0.0912,-0.44861 0.193344,-0.19334 0.092448,0.231 0.081088,0.50701 -0.02528,0.61334 -0.106336,0.10633 -0.181984,-0.0827 -0.168096,-0.42 z m -13.3660794,-2.53334 c 0.0032,-1.056 0.06154,-1.44942 0.132736,-0.87426 0.07123,0.57515 0.06976,1.43915 -0.0032,1.92 -0.07299,0.48084 -0.131264,0.0103 -0.129472,-1.04574 z m -206.716652,1.20019 c 4.72039,-0.0499 12.35239,-0.0499 16.96,9e-5 4.60762,0.0499 0.74549,0.0908 -8.58251,0.0907 -9.328,-5e-5 -13.09787,-0.0409 -8.37749,-0.0908 z m 331.20001,0 c 4.72038,-0.0499 12.35238,-0.0499 16.96,9e-5 4.60762,0.0499 0.74547,0.0908 -8.58253,0.0907 -9.328,-5e-5 -13.097854,-0.0409 -8.37747,-0.0908 z m -528.98182,-1.20019 c 0.004,-0.704 0.0691,-0.95432 0.14562,-0.55626 0.0765,0.39805 0.0736,0.97405 -0.006,1.28 -0.0801,0.30594 -0.14272,-0.0198 -0.13917,-0.72374 z m 77.38456,-3.54666 c 0.0154,-0.37279 0.0912,-0.44861 0.19333,-0.19334 0.0924,0.231 0.0811,0.50701 -0.0252,0.61334 -0.10634,0.10633 -0.18197,-0.0827 -0.16808,-0.42 z m 86.72,-0.32 c 0.0154,-0.37279 0.0912,-0.44861 0.19333,-0.19334 0.0924,0.231 0.0811,0.50701 -0.0253,0.61334 -0.10633,0.10633 -0.18196,-0.0827 -0.16807,-0.42 z m 0,-2.88 c 0.0154,-0.37279 0.0912,-0.44861 0.19333,-0.19334 0.0924,0.231 0.0811,0.507 -0.0253,0.61334 -0.10633,0.10633 -0.18196,-0.0827 -0.16807,-0.42 z m 425.89473,-6.95347 c 0,-0.0551 0.468,-0.52307 1.04,-1.04 l 1.04,-0.93987 -0.93987,1.04 c -0.8761,0.96943 -1.14013,1.18709 -1.14013,0.93987 z m -580.47999,-10.93987 c 0.41336,-0.44 0.82356,-0.8 0.91156,-0.8 0.088,0 -0.1782,0.36 -0.59156,0.8 -0.41336,0.44 -0.82356,0.8 -0.91156,0.8 -0.088,0 0.1782,-0.36 0.59156,-0.8 z m 294.64,-0.0519 c 0.22,-0.0888 0.57999,-0.0888 0.79999,0 0.22,0.0888 0.04,0.16141 -0.39999,0.16141 -0.44,0 -0.62,-0.0726 -0.4,-0.16141 z m 315.83999,-1.92 c 0.22,-0.0888 0.58,-0.0888 0.8,0 0.22,0.0888 0.04,0.16141 -0.4,0.16141 -0.44,0 -0.62,-0.0726 -0.4,-0.16141 z m 5.14,-0.007 c 0.23101,-0.0924 0.50701,-0.0811 0.61334,0.0252 0.10634,0.10633 -0.0827,0.18196 -0.42,0.16807 -0.3728,-0.0154 -0.4486,-0.0912 -0.19334,-0.19334 z m -207.779997,-6.50142 c 0.3185604,-0.352 0.6512004,-0.64 0.7392004,-0.64 0.088,0 -0.10064,0.288 -0.4192,0.64 -0.3185604,0.352 -0.6512004,0.64 -0.7392004,0.64 -0.088,0 0.10064,-0.288 0.4192,-0.64 z m -385.499993,-0.53859 c 0.231,-0.0924 0.507,-0.0811 0.61333,0.0252 0.10634,0.10633 -0.0827,0.18196 -0.42,0.16807 -0.37278,-0.0154 -0.4486,-0.0912 -0.19333,-0.19334 z m 417.919993,0 c 0.231008,-0.0924 0.507008,-0.0811 0.613344,0.0252 0.106336,0.10633 -0.08269,0.18196 -0.42,0.16807 -0.3728,-0.0154 -0.448608,-0.0912 -0.193344,-0.19334 z M -394.59028,600.16902 c 0.39805,-0.0765 0.97405,-0.0736 1.28,0.006 0.30595,0.0801 -0.0197,0.14272 -0.72373,0.13917 -0.704,-0.004 -0.95432,-0.0691 -0.55627,-0.14563 z"
         id="path902" />
      <path
         style="fill:#afafaf;stroke-width:0.32"
         d="m -62.434016,764.02342 c 0.22,-0.0888 0.58,-0.0888 0.8,0 0.22,0.0888 0.04,0.16141 -0.4,0.16141 -0.44,0 -0.62,-0.0726 -0.4,-0.16141 z m 30.64,-9.70807 c 0.31856,-0.352 0.6512,-0.64 0.7392,-0.64 0.088,0 -0.10064,0.288 -0.4192,0.64 -0.31856,0.352 -0.6512,0.64 -0.7392,0.64 -0.088,0 0.10064,-0.288 0.4192,-0.64 z m -34.337632,-3.68 c 0.0064,-0.528 0.07824,-0.70526 0.159392,-0.39391 0.08112,0.31135 0.07581,0.74335 -0.01184,0.96 -0.08765,0.21665 -0.154016,-0.0381 -0.14752,-0.56609 z m 24.96,-0.32 c 0.0064,-0.528 0.07824,-0.70526 0.159392,-0.39391 0.08112,0.31135 0.07581,0.74335 -0.01184,0.96 -0.08765,0.21665 -0.154016,-0.0381 -0.14752,-0.56609 z m 216.097628,-4.64 c 0.31856,-0.352 0.6512,-0.64 0.7392,-0.64 0.088,0 -0.10064,0.288 -0.4192,0.64 -0.31856,0.352 -0.6512,0.64 -0.7392,0.64 -0.088,0 0.10064,-0.288 0.4192,-0.64 z M 33.725983,744.47887 c 1.012,-0.0635 2.668,-0.0635 3.68,0 1.012,0.0635 0.184,0.11546 -1.84,0.11546 -2.024,0 -2.852,-0.0519 -1.84,-0.11546 z m -49.119999,-2.24045 c 1.099999,-0.0625 2.899999,-0.0625 3.999999,0 1.1,0.0625 0.2,0.11361 -2,0.11361 -2.199999,0 -3.099999,-0.0511 -1.999999,-0.11361 z m 140.013306,-6.4e-4 c 1.19533,-0.0617 3.06733,-0.0613 4.16,9.6e-4 1.09268,0.0623 0.11469,0.11281 -2.17331,0.11225 -2.288,-6.4e-4 -3.18201,-0.0515 -1.98669,-0.11327 z m 82.83722,-0.72243 c 0,-0.44 0.0726,-0.62 0.16141,-0.4 0.0888,0.22 0.0888,0.58 0,0.8 -0.0888,0.22 -0.16141,0.04 -0.16141,-0.4 z m -168.296287,-0.64 c 0,-0.616 0.06586,-0.868 0.146336,-0.56 0.08051,0.308 0.08051,0.812 0,1.12 -0.08048,0.308 -0.146336,0.056 -0.146336,-0.56 z m -70.423711,-1.28 c 0,-0.44 0.07264,-0.62 0.161408,-0.4 0.08877,0.22 0.08877,0.58 0,0.8 -0.08877,0.22 -0.161408,0.04 -0.161408,-0.4 z m 15.949472,-1.72082 c 0,-0.0665 0.252,-0.31845 0.56,-0.56 0.507551,-0.39804 0.518847,-0.38672 0.120831,0.12082 -0.418047,0.53304 -0.680831,0.70255 -0.680831,0.43918 z M -37.04736,729.2648 c 0.07334,-0.0498 0.421344,-0.3018 0.773344,-0.56 0.592,-0.43425 0.607072,-0.42746 0.200832,0.0906 -0.241568,0.308 -0.589568,0.56 -0.773344,0.56 -0.183776,0 -0.274144,-0.0408 -0.200832,-0.0906 z m -93.22665,-0.76138 c 0.22,-0.0888 0.58,-0.0888 0.8,0 0.22,0.0888 0.04,0.1614 -0.4,0.1614 -0.44,0 -0.62,-0.0726 -0.4,-0.1614 z m -270.08,-24.32 c 0.22,-0.0888 0.58,-0.0888 0.8,0 0.22,0.0888 0.04,0.1614 -0.4,0.1614 -0.44,0 -0.62,-0.0726 -0.4,-0.1614 z m 8.34,-0.007 c 0.231,-0.0924 0.507,-0.0811 0.61333,0.0252 0.10634,0.10633 -0.0827,0.18196 -0.42,0.16807 -0.37278,-0.0154 -0.4486,-0.0912 -0.19333,-0.19333 z m 48.08526,-46.04808 c 0.0154,-0.37278 0.0912,-0.44861 0.19333,-0.19334 0.0924,0.231 0.0811,0.50701 -0.0252,0.61334 -0.10634,0.10633 -0.18197,-0.0827 -0.16808,-0.42 z M -446.90686,654.155 c 0,-0.792 0.0624,-1.116 0.13868,-0.72 0.0763,0.396 0.0763,1.044 0,1.44 -0.0763,0.396 -0.13868,0.072 -0.13868,-0.72 z m 0,-3.52 c 0,-0.792 0.0624,-1.116 0.13868,-0.72 0.0763,0.396 0.0763,1.044 0,1.44 -0.0763,0.396 -0.13868,0.072 -0.13868,-0.72 z m 0.0729,-4.8 c -0.10877,-0.176 -0.0453,-0.32 0.14111,-0.32 0.18639,0 0.33889,0.144 0.33889,0.32 0,0.176 -0.0635,0.32 -0.14111,0.32 -0.0776,0 -0.23012,-0.144 -0.33889,-0.32 z"
         id="path900" />
      <path
         style="fill:#8ea9c6;stroke-width:0.32"
         d="m -396.02961,698.08572 c 0.48642,-0.0736 1.20642,-0.0716 1.6,0.004 0.39358,0.076 -0.004,0.13614 -0.8844,0.13374 -0.88,-0.003 -1.20202,-0.0645 -0.7156,-0.1381 z m 417.915593,3.2e-4 c 0.484,-0.0733 1.276,-0.0733 1.76,0 0.484,0.0733 0.088,0.13331 -0.88,0.13331 -0.968,0 -1.364,-0.06 -0.88,-0.13331 z m 177.779997,-0.30939 c 0.23101,-0.0924 0.50701,-0.0811 0.61334,0.0252 0.10634,0.10634 -0.0827,0.18197 -0.42,0.16807 -0.3728,-0.0154 -0.4486,-0.0912 -0.19334,-0.19333 z m -531.52297,-1.94017 c 1.81336,-0.0572 4.69336,-0.0569 6.4,6.4e-4 1.70664,0.0574 0.22298,0.10418 -3.29702,0.10389 -3.52,-2.8e-4 -4.91634,-0.0473 -3.10298,-0.10441 z m 97.76746,-9.6e-4 c 9.29746,-0.0472 24.41746,-0.0471 33.6,2e-5 9.18253,0.0472 1.57552,0.0858 -16.90448,0.0857 -18.48,-2e-5 -25.99299,-0.0386 -16.69552,-0.0858 z m 65.73552,10e-4 c 1.804,-0.057 4.756,-0.057 6.56,0 1.804,0.057 0.328,0.1037 -3.28,0.1037 -3.608,0 -5.084,-0.0467 -3.28,-0.1037 z m 55.00911,-10e-4 c -0.13526,-0.21842 9.66506,-0.21319 20.590885,0.011 2.376,0.0488 -1.251488,0.12022 -8.061125,0.15883 -6.8096,0.0386 -12.448,-0.0378 -12.52976,-0.16981 z m 75.19962,0 c -0.08195,-0.132 1.961568,-0.20281 4.54112,-0.15734 8.656608,0.15256 9.540928,0.26807 2.549024,0.33294 -3.8176,0.0354 -7.00816,-0.0436 -7.090144,-0.1756 z m 135.255742,4e-5 c 9.297468,-0.0471 24.417468,-0.0471 33.599998,3e-5 9.18253,0.0472 1.57552,0.0858 -16.90448,0.0857 -18.479998,-10e-6 -25.99299,-0.0386 -16.695518,-0.0858 z m -524.921702,-10.56021 -1.10277,-1.2 1.2,1.10277 c 1.11693,1.02644 1.34713,1.29723 1.10277,1.29723 -0.0535,0 -0.59347,-0.54 -1.2,-1.2 z m 622.66096,0.65367 c 0.39805,-0.0765 0.97405,-0.0736 1.28,0.006 0.30592,0.0801 -0.0198,0.14272 -0.72374,0.13916 -0.704,-0.004 -0.95434,-0.0691 -0.55626,-0.14562 z m -419.33974,-1.9336 c 7.5372,-0.0478 19.7772,-0.0478 27.2,4e-5 7.4228,0.0479 1.25601,0.087 -13.70399,0.087 -14.96,-2e-5 -21.03321,-0.0392 -13.49601,-0.087 z m 331.2,0 c 7.53719,-0.0478 19.77719,-0.0478 27.2,4e-5 7.42279,0.0479 1.256,0.087 -13.704,0.087 -14.96,-2e-5 -21.033214,-0.0392 -13.496,-0.087 z m -106.8543967,-7.20007 -0.60959999,-0.72 0.71999999,0.60959 c 0.67660799,0.57287 0.86566398,0.83041 0.60959999,0.83041 -0.060736,0 -0.384736,-0.324 -0.71999999,-0.72 z M 62.272702,661.67534 c 6.4e-5,-7.568 0.04192,-10.61825 0.09299,-6.77835 0.0511,3.83991 0.05104,10.03191 -1.28e-4,13.76 -0.05117,3.7281 -0.09296,0.58636 -0.09286,-6.98165 z m -131.106718,6.32052 c 3.036,-0.0526 8.004,-0.0526 11.04,0 3.036,0.0526 0.552,0.0956 -5.52,0.0956 -6.072,0 -8.556,-0.043 -5.52,-0.0956 z m -76.399994,-0.72051 -13.6,-0.17045 13.50112,-0.0748 c 8.73712,-0.0484 13.57088,0.0381 13.69888,0.24523 0.10876,0.176 0.15328,0.28634 0.0989,0.24522 -0.0544,-0.0411 -6.21888,-0.15148 -13.69888,-0.24522 z m -167.44,-0.23983 c 5.324,-0.0493 14.036,-0.0493 19.36,0 5.324,0.0493 0.968,0.0896 -9.68,0.0896 -10.648,0 -15.004,-0.0403 -9.68,-0.0896 z m 549.58236,-3.76018 c 0.006,-0.528 0.0782,-0.70526 0.15939,-0.39391 0.0811,0.31135 0.0758,0.74335 -0.0118,0.96 -0.0876,0.21665 -0.15402,-0.0381 -0.14752,-0.56609 z m 0,-2.88 c 0.006,-0.528 0.0782,-0.70526 0.15939,-0.39391 0.0811,0.31135 0.0758,0.74335 -0.0118,0.96 -0.0876,0.21665 -0.15402,-0.0381 -0.14752,-0.56609 z m -210.808415,-6.24 c 0,-3.432 0.04707,-4.836 0.104608,-3.12 0.05754,1.716 0.05754,4.524 0,6.24 -0.05754,1.716 -0.104608,0.312 -0.104608,-3.12 z m -466.668685,2.69334 c 0.0154,-0.37279 0.0912,-0.44861 0.19333,-0.19334 0.0924,0.231 0.0811,0.50701 -0.0252,0.61334 -0.10634,0.10633 -0.18197,-0.0827 -0.16807,-0.42 z m 90.58526,-2.05334 c 0,-0.44 0.0726,-0.62 0.16141,-0.4 0.0888,0.22 0.0888,0.58 0,0.8 -0.0888,0.22 -0.16141,0.04 -0.16141,-0.4 z m -77.44,-0.64 c 0,-0.44 0.0726,-0.62 0.16141,-0.4 0.0888,0.22 0.0888,0.58 0,0.8 -0.0888,0.22 -0.16141,0.04 -0.16141,-0.4 z m 64.0519,-1.92 c 0,-1.144 0.0581,-1.612 0.12907,-1.04 0.071,0.572 0.071,1.508 0,2.08 -0.071,0.572 -0.12907,0.104 -0.12907,-1.04 z m -64.04004,-1.76 c 0.007,-0.528 0.0782,-0.70526 0.15938,-0.39391 0.0811,0.31135 0.0758,0.74335 -0.0119,0.96 -0.0876,0.21665 -0.15403,-0.0381 -0.14751,-0.56609 z m 77.40288,-0.66666 c 0.0154,-0.37279 0.0912,-0.44861 0.19333,-0.19334 0.0924,0.231 0.0811,0.50701 -0.0252,0.61334 -0.10634,0.10633 -0.18197,-0.0827 -0.16808,-0.42 z m 340.4799814,-0.96 c 0.01536,-0.37279 0.0912,-0.44861 0.193344,-0.19334 0.092448,0.231 0.081088,0.50701 -0.02528,0.61334 -0.106336,0.10633 -0.181984,-0.0827 -0.168096,-0.42 z M -263.23977,647.11534 c 0,-0.616 0.0659,-0.868 0.14634,-0.56 0.0805,0.308 0.0805,0.812 0,1.12 -0.0805,0.308 -0.14634,0.056 -0.14634,-0.56 z m 160.911,-1.46666 c 0.0154,-0.37279 0.0912,-0.44861 0.19335,-0.19334 0.0924,0.231 0.0811,0.507 -0.0253,0.61334 -0.10634,0.10633 -0.18199,-0.0827 -0.1681,-0.42 z m -14.78608,-3.57334 c -0.39801,-0.50754 -0.38672,-0.51885 0.12083,-0.12082 0.53303,0.41804 0.70256,0.68082 0.43917,0.68082 -0.0664,0 -0.31843,-0.252 -0.56,-0.56 z m -195.87916,-2.5598 c 5.148,-0.0494 13.572,-0.0494 18.72,0 5.148,0.0494 0.936,0.0898 -9.36,0.0898 -10.296,0 -14.508,-0.0404 -9.36,-0.0898 z m 87.68,-9e-5 c 7.084,-0.048 18.676,-0.048 25.76,0 7.084,0.048 1.288,0.0874 -12.88,0.0874 -14.168,0 -19.964,-0.0393 -12.88,-0.0874 z m 75.0174,1.6e-4 c 4.69559,-0.0498 12.47159,-0.0499 17.28,-9e-5 4.80842,0.0498 0.9666,0.0906 -8.5374,0.0906 -9.504,5e-5 -13.43818,-0.0407 -8.7426,-0.0906 z m 256.18259,-1.6e-4 c 7.084,-0.048 18.676,-0.048 25.76,0 7.084,0.048 1.288,0.0874 -12.88,0.0874 -14.168,0 -19.963998,-0.0393 -12.88,-0.0874 z m 89.12608,-1.90186 c 0.31136,-0.0811 0.74336,-0.0758 0.96,0.0119 0.21667,0.0877 -0.0381,0.15404 -0.56608,0.14752 -0.528,-0.007 -0.70525,-0.0782 -0.39392,-0.15938 z m -354.56607,-9.93813 c 6.644,-0.0483 17.516,-0.0483 24.16,0 6.644,0.0483 1.208,0.0878 -12.08,0.0878 -13.288,0 -18.724,-0.0395 -12.08,-0.0878 z m 354.07999,-1.9116 c 0.572,-0.071 1.508,-0.071 2.08,0 0.572,0.071 0.104,0.12906 -1.04,0.12906 -1.144,0 -1.612,-0.0581 -1.04,-0.12906 z m -139.935069,-6.56852 -1.264928,-1.36 1.36,1.26495 c 0.748,0.69572 1.36,1.30772 1.36,1.36 0,0.2421 -0.278688,-1.6e-4 -1.455072,-1.26495 z m -451.578831,-0.46175 c 0.31135,-0.0811 0.74335,-0.0758 0.96,0.0119 0.21665,0.0877 -0.0381,0.15404 -0.56609,0.14751 -0.528,-0.007 -0.70526,-0.0782 -0.39391,-0.15937 z m 2.56,0 c 0.31135,-0.0811 0.74335,-0.0758 0.96,0.0119 0.21665,0.0877 -0.0381,0.15404 -0.56609,0.14751 -0.528,-0.007 -0.70526,-0.0782 -0.39391,-0.15937 z m 415.359983,0 c 0.31136,-0.0811 0.74336,-0.0758 0.96,0.0119 0.216672,0.0877 -0.03808,0.15404 -0.56608,0.14751 -0.528,-0.007 -0.705248,-0.0782 -0.39392,-0.15937 z m 2.56,0 c 0.31136,-0.0811 0.74336,-0.0758 0.96,0.0119 0.216672,0.0877 -0.03808,0.15404 -0.56608,0.14751 -0.528,-0.007 -0.705248,-0.0782 -0.39392,-0.15937 z"
         id="path898" />
      <path
         style="fill:#6598fd;stroke-width:0.32"
         d="m -395.44669,582.31534 c 0.0128,-9.856 0.0816,-17.776 0.15301,-17.6 0.16593,0.40905 6.53967,34.87889 6.53967,35.36721 0,0.25735 -0.9927,0.33394 -3.35794,0.25908 l -3.35794,-0.10629 z"
         id="path896" />
      <path
         style="fill:#969696;stroke-width:0.32"
         d="m -62.914016,760.81476 c 0.308,-0.0805 0.812,-0.0805 1.12,0 0.308,0.0805 0.056,0.14635 -0.56,0.14635 -0.616,0 -0.868,-0.0659 -0.56,-0.14635 z m 180.359166,-5.13941 c -0.39802,-0.50754 -0.38672,-0.51886 0.12083,-0.12082 0.308,0.24155 0.56,0.49355 0.56,0.56 0,0.26337 -0.26278,0.0939 -0.68083,-0.43918 z m -261.44,-0.32 c -0.39801,-0.50754 -0.38672,-0.51886 0.12084,-0.12082 0.308,0.24155 0.56,0.49355 0.56,0.56 0,0.26337 -0.26279,0.0939 -0.68084,-0.43918 z m 91.720834,-0.72 c 0.31856,-0.352 0.6512,-0.64 0.7392,-0.64 0.088,0 -0.10064,0.288 -0.4192,0.64 -0.31856,0.352 -0.6512,0.64 -0.7392,0.64 -0.088,0 0.10064,-0.288 0.4192,-0.64 z m 55.4599993,-0.8586 c 0.2310079,-0.0924 0.5070079,-0.0811 0.6133439,0.0252 0.106336,0.10633 -0.082688,0.18197 -0.42,0.16807 -0.3727999,-0.0154 -0.4486079,-0.0912 -0.1933439,-0.19333 z m 176.3199967,0 c 0.23101,-0.0924 0.50701,-0.0811 0.61334,0.0252 0.10634,0.10633 -0.0827,0.18197 -0.42,0.16807 -0.3728,-0.0154 -0.4486,-0.0912 -0.19334,-0.19333 z m 32.32,0 c 0.23101,-0.0924 0.50701,-0.0811 0.61334,0.0252 0.10634,0.10633 -0.0827,0.18197 -0.42,0.16807 -0.3728,-0.0154 -0.4486,-0.0912 -0.19334,-0.19333 z m -216.5294686,-2.0214 c 0,-0.44 0.07264,-0.62 0.161408,-0.4 0.088768,0.22 0.088768,0.58 0,0.8 -0.088768,0.22 -0.161408,0.04 -0.161408,-0.4 z m 4.4799999,-1.28 c 0,-0.44 0.07264,-0.62 0.161408,-0.4 0.088768,0.22 0.088768,0.58 0,0.8 -0.088768,0.22 -0.161408,0.04 -0.161408,-0.4 z M -115.76877,750.28868 c 0.0154,-0.37278 0.0912,-0.4486 0.19335,-0.19333 0.0924,0.231 0.0811,0.507 -0.0253,0.61333 -0.10634,0.10634 -0.18199,-0.0827 -0.1681,-0.42 z m 96.320002,0 c 0.01536,-0.37278 0.0912,-0.4486 0.193344,-0.19333 0.09245,0.231 0.08109,0.507 -0.02528,0.61333 -0.106336,0.10634 -0.181984,-0.0827 -0.168096,-0.42 z m -126.682882,-0.93333 c 0.006,-0.528 0.0782,-0.70526 0.1594,-0.39391 0.0811,0.31135 0.0758,0.74335 -0.0118,0.96 -0.0876,0.21665 -0.15402,-0.0381 -0.14752,-0.56609 z m 5.10816,-1.44 c 0,-0.44 0.0726,-0.62 0.16141,-0.4 0.0888,0.22 0.0888,0.58 0,0.8 -0.0888,0.22 -0.16141,0.04 -0.16141,-0.4 z m 17.25472,-2.74667 c 0.0154,-0.37278 0.0912,-0.4486 0.19335,-0.19333 0.0924,0.231 0.0811,0.507 -0.0253,0.61333 -0.10634,0.10634 -0.18199,-0.0827 -0.1681,-0.42 z m 308.71475,-0.0319 c 0.23101,-0.0924 0.50701,-0.0811 0.61334,0.0252 0.10634,0.10633 -0.0827,0.18196 -0.42,0.16807 -0.3728,-0.0154 -0.4486,-0.0912 -0.19334,-0.19334 z m -145.772829,-2.0214 c 0,-0.792 0.0624,-1.116 0.138656,-0.72 0.07629,0.396 0.07629,1.044 0,1.44 -0.07626,0.396 -0.138656,0.072 -0.138656,-0.72 z m -40.3566397,-1.6 c 0,-0.44 0.07264,-0.62 0.161408,-0.4 0.088768,0.22 0.088768,0.58 0,0.8 -0.088768,0.22 -0.161408,0.04 -0.161408,-0.4 z m -394.2563913,-1.76 c -0.0163,-0.176 -1.48836,-8.21032 -3.2712,-17.85403 -1.78285,-9.64372 -3.18785,-17.57608 -3.12224,-17.62748 0.0656,-0.0514 1.59285,-0.0284 3.39386,0.051 l 3.27455,0.14448 0.0855,17.06538 c 0.047,9.38597 -0.008,17.39732 -0.12265,17.80301 -0.11446,0.40568 -0.22146,0.59361 -0.23777,0.41761 z m 526.41639,-0.48 c 0,-0.44 0.0726,-0.62 0.16141,-0.4 0.0888,0.22 0.0888,0.58 0,0.8 -0.0888,0.22 -0.16141,0.04 -0.16141,-0.4 z m -6.45053,-1.40082 c 0,-0.0665 0.252,-0.31845 0.56,-0.56 0.50755,-0.39804 0.51885,-0.38672 0.12083,0.12082 -0.41804,0.53304 -0.68083,0.70255 -0.68083,0.43918 z m 57.28,0 c 0,-0.0665 0.252,-0.31845 0.56,-0.56 0.50755,-0.39804 0.51885,-0.38672 0.12083,0.12082 -0.41805,0.53304 -0.68083,0.70255 -0.68083,0.43918 z m -290.3,-1.69778 c 0.23101,-0.0924 0.50701,-0.0811 0.61335,0.0253 0.10633,0.10633 -0.0827,0.18197 -0.42,0.16807 -0.3728,-0.0154 -0.44861,-0.0912 -0.19335,-0.19333 z m 74.560004,0 c 0.231008,-0.0924 0.507008,-0.0811 0.613344,0.0253 0.106336,0.10633 -0.08269,0.18197 -0.42,0.16807 -0.3728,-0.0154 -0.448608,-0.0912 -0.193344,-0.19333 z m 180.539996,-0.86222 c 0,-0.0665 0.252,-0.31845 0.56,-0.56 0.50755,-0.39804 0.51885,-0.38672 0.12083,0.12082 -0.41804,0.53304 -0.68083,0.70255 -0.68083,0.43918 z m -249.00083,-1.07918 c -0.39801,-0.50754 -0.38672,-0.51886 0.12083,-0.12082 0.308,0.24155 0.56,0.49355 0.56,0.56 0,0.26337 -0.26278,0.0939 -0.68083,-0.43918 z m 21.800834,-1.04 -2.4,-0.2047 2.30112,-0.0576 c 1.2656,-0.0317 2.390112,0.0863 2.49888,0.26235 0.108768,0.176 0.15328,0.29406 0.09888,0.26235 -0.05437,-0.0317 -1.17888,-0.14977 -2.49888,-0.26235 z m 134.366207,-0.0957 c 0.141472,-0.14065 1.250976,-0.21119 2.465504,-0.15675 l 2.208287,0.099 -2.465535,0.15675 c -1.356032,0.0862 -2.34976,0.0417 -2.208256,-0.099 z m 146.559259,6.4e-4 c 0.14109,-0.14026 1.32259,-0.21093 2.62554,-0.15705 l 2.36899,0.098 -2.62554,0.15705 c -1.44403,0.0864 -2.51008,0.0423 -2.36899,-0.098 z M -70.105568,732.9606 c 0.752672,-0.0676 1.904672,-0.0666 2.56,0.002 0.65536,0.0688 0.03955,0.12407 -1.368448,0.12291 -1.408,-10e-4 -1.944192,-0.0574 -1.191552,-0.12502 z m 181.591548,0.002 c 0.66,-0.069 1.74,-0.069 2.4,0 0.66,0.069 0.12,0.12553 -1.2,0.12553 -1.32,0 -1.86,-0.0565 -1.2,-0.12553 z m 31.68,0 c 0.66,-0.069 1.74,-0.069 2.4,0 0.66,0.069 0.12,0.12553 -1.2,0.12553 -1.32,0 -1.86,-0.0565 -1.2,-0.12553 z m 19.2,0.004 c 0.484,-0.0733 1.276,-0.0733 1.76,0 0.484,0.0733 0.088,0.13331 -0.88,0.13331 -0.968,0 -1.364,-0.06 -0.88,-0.13331 z m 8.15286,-0.002 c 0.56807,-0.0707 1.57607,-0.0718 2.24,-0.003 0.66394,0.0693 0.19914,0.12711 -1.03286,0.12853 -1.232,10e-4 -1.7752,-0.0553 -1.20714,-0.12595 z m -198.372856,-6.70764 c 0.231008,-0.0924 0.507008,-0.0811 0.613344,0.0252 0.106336,0.10634 -0.08269,0.18197 -0.42,0.16808 -0.3728,-0.0154 -0.448608,-0.0912 -0.193344,-0.19334 z M -128.82793,724.0138 c 0.31136,-0.0811 0.74336,-0.0758 0.96,0.0119 0.21667,0.0876 -0.0381,0.15404 -0.56608,0.14751 -0.528,-0.007 -0.70525,-0.0782 -0.39392,-0.15937 z m -262.22608,-19.83691 c 0.231,-0.0924 0.507,-0.0811 0.61333,0.0253 0.10634,0.10633 -0.0827,0.18196 -0.42,0.16807 -0.37278,-0.0154 -0.4486,-0.0912 -0.19333,-0.19333 z m -73.76335,-48.52766 c -9.53884,-1.77855 -17.29463,-3.28243 -17.23509,-3.34197 0.12341,-0.12341 34.33766,-6.47178 34.87935,-6.47178 0.24668,0 0.35363,1.98409 0.35363,6.56 0,4.28084 -0.1137,6.5474 -0.32727,6.52373 -0.18,-0.0199 -8.13178,-1.49144 -17.67062,-3.26998 z m 121.18335,0.0415 c 0.088,-1.8124 0.0857,-4.73527 -0.005,-6.49527 -0.0908,-1.76 -0.13722,-3.24956 -0.10319,-3.31014 0.034,-0.0606 2.01632,0.22428 4.40507,0.63302 l 4.34319,0.74317 v 5.01229 5.01229 l -3.76,0.69993 c -2.068,0.38497 -4.048,0.76745 -4.4,0.84995 -0.61594,0.14437 -0.63399,0.0261 -0.48,-3.14524 z m 21.44,-3.46136 c 0,-2.49632 0.0196,-2.56165 0.72,-2.40238 0.396,0.09 3.44004,0.66482 6.76453,1.27729 3.32448,0.61246 6.09133,1.16038 6.14855,1.2176 0.0986,0.0986 -12.88636,2.50731 -13.39308,2.48442 -0.132,-0.006 -0.24,-1.16558 -0.24,-2.57693 z"
         id="path894" />
      <path
         style="fill:#6c90b4;stroke-width:0.32"
         d="m 191.66598,697.77675 c 0.23101,-0.0924 0.50701,-0.0811 0.61334,0.0252 0.10634,0.10633 -0.0827,0.18196 -0.42,0.16807 -0.3728,-0.0154 -0.4486,-0.0912 -0.19334,-0.19333 z m 7.04,0 c 0.23101,-0.0924 0.50701,-0.0811 0.61334,0.0252 0.10634,0.10633 -0.0827,0.18196 -0.42,0.16807 -0.3728,-0.0154 -0.4486,-0.0912 -0.19334,-0.19333 z m -521.07275,-16.2614 c 7e-5,-7.92 0.0417,-11.11417 0.0925,-7.09815 0.0508,4.01601 0.0508,10.49601 -1.3e-4,14.4 -0.0509,3.90398 -0.0925,0.61815 -0.0924,-7.30185 z m 71.36705,-19.84001 c 2e-5,-18.832 0.0386,-26.48896 0.0857,-17.01548 0.0471,9.47349 0.0471,24.88149 -3e-5,34.24 -0.0471,9.35852 -0.0856,1.60749 -0.0856,-17.22452 z m 331.200006,0 c 0,-18.832 0.03856,-26.48896 0.08566,-17.01548 0.04707,9.47349 0.04707,24.88149 -3.2e-5,34.24 -0.0471,9.35852 -0.08566,1.60749 -0.08563,-17.22452 z m -90.0743026,23.68001 c -0.7772804,-0.792 -1.3412484,-1.44 -1.2532484,-1.44 0.088,0 0.795968,0.648 1.5732484,1.44 0.77728,0.792 1.341248,1.44 1.253248,1.44 -0.088,0 -0.795968,-0.648 -1.573248,-1.44 z m 64.3066236,0.08 c 1.32608,-1.41286 1.613376,-1.66691 1.613376,-1.42663 0,0.0514 -0.684,0.73536 -1.52,1.52 l -1.52,1.42663 z m 138.813373,0.50807 c 0.22,-0.0888 0.58,-0.0888 0.8,0 0.22,0.0888 0.04,0.1614 -0.4,0.1614 -0.44,0 -0.62,-0.0726 -0.4,-0.1614 z m 3.52,0 c 0.22,-0.0888 0.58,-0.0888 0.8,0 0.22,0.0888 0.04,0.1614 -0.4,0.1614 -0.44,0 -0.62,-0.0726 -0.4,-0.1614 z m -558.63999,-1.82889 c 0,-0.0665 0.252,-0.31845 0.56,-0.56 0.50754,-0.39804 0.51886,-0.38672 0.12082,0.12082 -0.41804,0.53304 -0.68082,0.70255 -0.68082,0.43918 z m 579.51999,-6.43918 c 0.41334,-0.44 0.82355,-0.8 0.91155,-0.8 0.088,0 -0.17821,0.36 -0.59155,0.8 -0.41334,0.44 -0.82355,0.8 -0.91155,0.8 -0.088,0 0.17821,-0.36 0.59155,-0.8 z m -635.71039,-0.88 -0.6096,-0.72 0.72,0.60959 c 0.67662,0.57287 0.86568,0.83041 0.6096,0.83041 -0.0607,0 -0.38473,-0.324 -0.72,-0.72 z m 462.750393,0.08 c 0.31856,-0.352 0.6512,-0.64 0.7392,-0.64 0.088,0 -0.10064,0.288 -0.4192,0.64 -0.31856,0.352 -0.6512,0.64 -0.7392,0.64 -0.088,0 0.10064,-0.288 0.4192,-0.64 z M -229.6115,665.43553 c 4.72039,-0.0499 12.35239,-0.0499 16.96,9e-5 4.60762,0.05 0.74549,0.0908 -8.58251,0.0907 -9.328,-5e-5 -13.09787,-0.0409 -8.37749,-0.0908 z m 330.85748,4e-5 c 4.708,-0.0499 12.412,-0.0499 17.12,0 4.708,0.0499 0.856,0.0907 -8.56,0.0907 -9.416,0 -13.267998,-0.0408 -8.56,-0.0907 z m 135.65053,-3.60023 c 0,-0.44 0.0726,-0.62 0.16141,-0.4 0.0888,0.22 0.0888,0.58 0,0.8 -0.0888,0.22 -0.16141,0.04 -0.16141,-0.4 z m -664.34526,-6.58666 c 0.0154,-0.37279 0.0912,-0.44861 0.19333,-0.19334 0.0924,0.231 0.0811,0.50701 -0.0252,0.61334 -0.10634,0.10633 -0.18197,-0.0827 -0.16807,-0.42 z m 64,-0.64 c 0.0154,-0.37279 0.0912,-0.44861 0.19333,-0.19334 0.0924,0.231 0.0811,0.50701 -0.0252,0.61334 -0.10634,0.10633 -0.18197,-0.0827 -0.16807,-0.42 z m 13.51716,-2.37334 c 0,-1.144 0.0581,-1.612 0.12907,-1.04 0.071,0.572 0.071,1.508 0,2.08 -0.071,0.572 -0.12907,0.104 -0.12907,-1.04 z m 71.73758,0.32 c 0.31855,-0.352 0.65119,-0.64 0.73919,-0.64 0.088,0 -0.10064,0.288 -0.41919,0.64 -0.31856,0.352 -0.6512,0.64 -0.7392,0.64 -0.088,0 0.10064,-0.288 0.4192,-0.64 z m -44.19047,-7.84 c 3.2e-4,-2.816 0.0494,-3.92516 0.10879,-2.4648 0.0594,1.46036 0.0591,3.76436 -6.4e-4,5.12 -0.0598,1.35564 -0.10846,0.1608 -0.10805,-2.6552 z m -118.18427,3.81334 c 0.0154,-0.37279 0.0912,-0.44861 0.19333,-0.19334 0.0924,0.231 0.0811,0.50701 -0.0252,0.61334 -0.10634,0.10633 -0.18197,-0.0827 -0.16807,-0.42 z m 338.29544,-1.25334 c 0.004,-0.704 0.0691,-0.95432 0.14563,-0.55626 0.0765,0.39805 0.0736,0.97405 -0.006,1.28 -0.0801,0.30594 -0.14272,-0.0198 -0.13917,-0.72374 z m -182.5607,-7.73193 c 0.22,-0.0888 0.58,-0.0888 0.8,0 0.22,0.0888 0.04,0.16141 -0.4,0.16141 -0.44,0 -0.62,-0.0726 -0.4,-0.16141 z m 160.64,0 c 0.22,-0.0888 0.58,-0.0888 0.8,0 0.22,0.0888 0.04,0.16141 -0.4,0.16141 -0.44,0 -0.62,-0.0726 -0.4,-0.16141 z m 317.60607,-1.92982 c 0.31136,-0.0811 0.74336,-0.0758 0.96,0.0119 0.21667,0.0877 -0.0381,0.15404 -0.56608,0.14752 -0.528,-0.007 -0.70525,-0.0782 -0.39392,-0.15938 z m 3.2,0 c 0.31136,-0.0811 0.74336,-0.0758 0.96,0.0119 0.21667,0.0877 -0.0381,0.15404 -0.56608,0.14752 -0.528,-0.007 -0.70525,-0.0782 -0.39392,-0.15938 z m -304.12691,-3.85825 c -0.39801,-0.50754 -0.38672,-0.51885 0.12083,-0.12082 0.53303,0.41804 0.70256,0.68082 0.43917,0.68082 -0.0664,0 -0.31843,-0.252 -0.56,-0.56 z m -322.19916,-12.36082 c 0,-0.0664 0.252,-0.31844 0.56,-0.56 0.50754,-0.39803 0.51886,-0.38672 0.12082,0.12082 -0.41804,0.53304 -0.68082,0.70256 -0.68082,0.43918 z m 31.62,-2.65777 c 0.231,-0.0924 0.507,-0.0811 0.61333,0.0252 0.10634,0.10633 -0.0827,0.18196 -0.42,0.16807 -0.37278,-0.0154 -0.4486,-0.0912 -0.19333,-0.19334 z m 5.12,0 c 0.231,-0.0924 0.507,-0.0811 0.61333,0.0252 0.10634,0.10633 -0.0827,0.18196 -0.42,0.16807 -0.37278,-0.0154 -0.4486,-0.0912 -0.19333,-0.19334 z m 412.799993,0 c 0.231008,-0.0924 0.507008,-0.0811 0.613344,0.0252 0.106336,0.10633 -0.08269,0.18196 -0.42,0.16807 -0.3728,-0.0154 -0.448608,-0.0912 -0.193344,-0.19334 z m -1.6,-12.16 c 0.231008,-0.0924 0.507008,-0.0811 0.613344,0.0252 0.106336,0.10634 -0.08269,0.18197 -0.42,0.16808 -0.3728,-0.0154 -0.448608,-0.0912 -0.193344,-0.19334 z m 8,0 c 0.231008,-0.0924 0.507008,-0.0811 0.613344,0.0252 0.106336,0.10634 -0.08269,0.18197 -0.42,0.16808 -0.3728,-0.0154 -0.448608,-0.0912 -0.193344,-0.19334 z m -428.257733,-6.17774 c -0.1121,-0.1814 0.0164,-0.23504 0.30112,-0.12577 0.55437,0.21274 0.6558,0.4421 0.19551,0.4421 -0.16562,0 -0.3891,-0.14235 -0.49663,-0.31633 z m 5.03774,-0.22425 c 0.308,-0.0805 0.812,-0.0805 1.12,0 0.308,0.0805 0.056,0.14634 -0.56,0.14634 -0.616,0 -0.868,-0.0658 -0.56,-0.14634 z"
         id="path892" />
      <path
         style="fill:#4b77a4;stroke-width:0.32"
         d="m -158.84665,681.35535 c 0,-8.008 0.0416,-11.284 0.0923,-7.28 0.0508,4.004 0.0508,10.556 0,14.56 -0.0508,4.004 -0.0923,0.728 -0.0923,-7.28 z m 323.9718,5.84 c -0.39802,-0.50754 -0.38672,-0.51886 0.12083,-0.12082 0.53302,0.41804 0.70256,0.68082 0.43917,0.68082 -0.0664,0 -0.31843,-0.252 -0.56,-0.56 z m 61.80083,-1.2 c 0.41334,-0.44 0.82355,-0.8 0.91155,-0.8 0.088,0 -0.17821,0.36 -0.59155,0.8 -0.41334,0.44 -0.82355,0.8 -0.91155,0.8 -0.088,0 0.17821,-0.36 0.59155,-0.8 z m -590.71999,0.0599 c 0,-0.0551 0.468,-0.52307 1.04,-1.04 l 1.04,-0.93986 -0.93987,1.04 c -0.87609,0.96942 -1.14013,1.18708 -1.14013,0.93986 z m 526.03916,-1.73986 c -0.39802,-0.50754 -0.38672,-0.51886 0.12083,-0.12082 0.53303,0.41804 0.70256,0.68082 0.43917,0.68082 -0.0664,0 -0.31843,-0.252 -0.56,-0.56 z m 53.80083,-5.00082 c 0,-0.0665 0.252,-0.31845 0.56,-0.56 0.50755,-0.39804 0.51885,-0.38672 0.12083,0.12082 -0.41805,0.53304 -0.68083,0.70255 -0.68083,0.43918 z m -633.00081,-1.39918 c -0.39804,-0.50754 -0.38672,-0.51886 0.12082,-0.12082 0.53304,0.41803 0.70255,0.68082 0.43918,0.68082 -0.0664,0 -0.31845,-0.252 -0.56,-0.56 z m 460.200813,0.43918 c 0,-0.0665 0.252,-0.31845 0.56,-0.56 0.507552,-0.39804 0.518848,-0.38672 0.120832,0.12082 -0.418048,0.53304 -0.680832,0.70255 -0.680832,0.43918 z m -416.159993,-1.47918 c 0.68744,-0.704 1.32189,-1.28 1.40989,-1.28 0.088,0 -0.40245,0.576 -1.08989,1.28 -0.68744,0.704 -1.32189,1.28 -1.40989,1.28 -0.088,0 0.40245,-0.576 1.08989,-1.28 z m -46.28082,-1.2 c -0.39804,-0.50754 -0.38672,-0.51886 0.12082,-0.12082 0.308,0.24155 0.56,0.49355 0.56,0.56 0,0.26337 -0.26278,0.0939 -0.68082,-0.43918 z m 464.680813,0.43918 c 0,-0.0665 0.252,-0.31845 0.56,-0.56 0.507552,-0.39804 0.518848,-0.38672 0.120832,0.12082 -0.418048,0.53304 -0.680832,0.70255 -0.680832,0.43918 z M -204.62119,659.59534 c 0,-3.256 0.0475,-4.588 0.1056,-2.96 0.0581,1.628 0.0581,4.292 0,5.92 -0.0581,1.628 -0.1056,0.296 -0.1056,-2.96 z m 331.2,0 c 0,-3.256 0.0475,-4.588 0.1056,-2.96 0.0581,1.628 0.0581,4.292 0,5.92 -0.0581,1.628 -0.1056,0.296 -0.1056,-2.96 z m 97.55434,2.24 c 0,-0.792 0.0624,-1.116 0.13865,-0.72 0.0763,0.396 0.0763,1.044 0,1.44 -0.0763,0.396 -0.13865,0.072 -0.13865,-0.72 z m -664.7019,-6.58666 c 0.0154,-0.37279 0.0912,-0.44861 0.19333,-0.19334 0.0924,0.231 0.0811,0.50701 -0.0252,0.61334 -0.10634,0.10633 -0.18197,-0.0827 -0.16807,-0.42 z m 118.16832,-2.85334 c -9.6e-4,-1.584 0.0531,-2.27234 0.12025,-1.52965 0.0671,0.74269 0.0679,2.03869 0.002,2.88 -0.0661,0.84131 -0.12105,0.23365 -0.12202,-1.35035 z m 163.54517,-5.12 c -2.3e-4,-4.4 0.0449,-6.24438 0.10013,-4.09863 0.0553,2.14576 0.0555,5.74576 0,8 -0.0551,2.25425 -0.10029,0.49863 -0.10048,-3.90137 z m -204.59349,1.89334 c 0.0154,-0.37279 0.0912,-0.44861 0.19333,-0.19334 0.0924,0.231 0.0811,0.50701 -0.0252,0.61334 -0.10634,0.10633 -0.18197,-0.0827 -0.16807,-0.42 z m 398.614733,-1.01313 c 4.972,-0.0496 13.108,-0.0496 18.08,0 4.971999,0.0496 0.904,0.0902 -9.04,0.0902 -9.944,0 -14.012,-0.0406 -9.04,-0.0902 z m -150.257633,-0.88021 c 0.006,-0.528 0.0782,-0.70526 0.15939,-0.39391 0.0811,0.31135 0.0758,0.74335 -0.0118,0.96 -0.0876,0.21665 -0.15401,-0.0381 -0.14752,-0.56609 z m 332.5575,-1.52 -0.93987,-1.04 1.04,0.93987 c 0.96944,0.87609 1.1871,1.14013 0.93987,1.14013 -0.0551,0 -0.52307,-0.468 -1.04,-1.04 z m 9.6,-8 -0.93987,-1.04 1.04,0.93987 c 0.96944,0.87609 1.1871,1.14013 0.93987,1.14013 -0.0551,0 -0.52307,-0.468 -1.04,-1.04 z m -510.91986,-10.05859 c 0.231,-0.0924 0.507,-0.0811 0.61333,0.0252 0.10633,0.10633 -0.0827,0.18196 -0.42,0.16807 -0.37278,-0.0154 -0.44861,-0.0912 -0.19333,-0.19333 z m -77.74082,-6.74141 c -0.39804,-0.50754 -0.38672,-0.51885 0.12082,-0.12082 0.308,0.24156 0.56,0.49356 0.56,0.56 0,0.26338 -0.26278,0.0939 -0.68082,-0.43918 z m -66.03918,-1.68 c 0.68744,-0.704 1.32189,-1.28 1.40989,-1.28 0.088,0 -0.40245,0.576 -1.08989,1.28 -0.68744,0.704 -1.32189,1.28 -1.40989,1.28 -0.088,0 0.40245,-0.576 1.08989,-1.28 z m 62.83918,-1.52 c -0.39804,-0.50754 -0.38672,-0.51885 0.12082,-0.12082 0.308,0.24156 0.56,0.49356 0.56,0.56 0,0.26338 -0.26278,0.0939 -0.68082,-0.43918 z m 356.5208134,0.11918 c 0,-0.0664 0.252,-0.31844 0.56,-0.56 0.507552,-0.39804 0.518848,-0.38672 0.120832,0.12082 -0.418048,0.53304 -0.680832,0.70256 -0.680832,0.43918 z"
         id="path890" />
      <path
         style="fill:#4ca5ff;stroke-width:0.32;fill-opacity:1"
         d="m -271.74048,711.54222 c -1.09267,-1.09267 -6.95841,-1.06945 249.306464,-0.98708 221.546556,0.0712 249.519996,0.13402 249.519996,0.56021 0,0.42619 -27.9497,0.48899 -249.30646,0.5602 -137.11856,0.0441 -249.40255,-0.0159 -249.52,-0.13333 z m -130.13353,-13.87006 c -8.12319,-1.11469 -14.9569,-3.87062 -21.1418,-8.52614 -8.95106,-6.73767 -14.88055,-16.69312 -16.83584,-28.26687 -0.76619,-4.53524 -0.68881,-13.19997 0.16007,-17.92381 1.72826,-9.61741 5.87203,-17.38288 12.90087,-24.17636 6.39368,-6.17961 13.81266,-9.92488 22.8367,-11.52848 4.26026,-0.75706 12.85474,-0.77132 17.19579,-0.0285 12.36141,2.11513 22.65989,8.88135 29.68485,19.5033 4.71386,7.12749 7.04618,15.6003 7.0335,25.55115 -0.0179,14.02275 -4.40137,24.76651 -13.7248,33.63897 -6.13527,5.8385 -13.08601,9.45514 -21.45798,11.16512 -3.50025,0.71492 -13.23294,1.06075 -16.65136,0.59166 z m 13.13581,-12.33885 c 10.59402,-2.00965 19.38888,-9.4038 23.20083,-19.50576 2.12312,-5.62644 2.8629,-12.98782 1.93546,-19.2595 -1.21998,-8.25002 -4.21834,-14.12124 -10.02342,-19.62733 -4.14914,-3.93542 -8.53258,-6.2559 -14.31213,-7.57647 -3.34421,-0.76412 -11.39229,-0.75064 -14.73655,0.0247 -9.37722,2.17396 -16.85836,8.04339 -21.1556,16.5979 -5.09416,10.14094 -4.8155,24.21077 0.67392,34.02677 3.44453,6.15939 9.39098,11.37861 15.68168,13.76387 5.29488,2.00768 12.98677,2.64643 18.73581,1.55585 z m 403.504183,12.17336 c -9.5651198,-1.44975 -17.5312637,-5.47368 -24.3323516,-12.29095 -4.8293124,-4.84083 -7.5635834,-8.9474 -9.9031994,-14.87353 -3.932288,-9.96041 -4.200608,-23.74631 -0.665696,-34.20396 4.89472,-14.4805 17.3109433,-25.49605 32.162015,-28.53385 13.102752,-2.68018 26.567584,-0.13544 36.979232,6.98875 3.097824,2.1197 8.336479,7.3656 10.479999,10.49451 0.924,1.34876 1.68,2.52887 1.68,2.62246 0,0.1477 -9.109983,6.75728 -10.141535,7.358 -0.245504,0.14298 -0.861216,-0.59917 -1.727232,-2.082 -2.750912,-4.71022 -8.232992,-9.4317 -13.601888,-11.7147 -7.05872,-3.00156 -15.970656,-3.43075 -23.329344,-1.12352 -5.1473278,1.61389 -8.7765438,3.91809 -12.8020477,8.12803 -4.2273279,4.42102 -6.5566719,8.56061 -8.0585919,14.32139 -1.006336,3.85976 -1.352384,11.02344 -0.748288,15.48969 1.7704,13.0888 10.8118079,23.60376 23.0490876,26.80559 3.405472,0.89103 10.264448,1.19996 14.121216,0.63602 7.47168,-1.0925 14.323392,-5.08924 19.375072,-11.30186 l 2.023552,-2.4886 v -5.7514 -5.7514 h -11.52 -11.52 v -5.92 -5.92 h 17.92 17.919999 v 13.49199 13.49199 l -1.021888,1.62801 c -6.623359,10.55185 -16.711103,17.60272 -28.726751,20.0787 -4.104992,0.84589 -13.34896,1.06668 -17.61136,0.42064 z m 175.581947,0.16973 c -10.74377,-1.0309 -19.56595,-4.98385 -26.42022,-11.8381 -4.60877,-4.60879 -7.45568,-9.71368 -9.06595,-16.25659 -0.87898,-3.57135 -0.95709,-11.41766 -0.14944,-15.00982 1.57853,-7.02075 4.43395,-12.12382 9.59705,-17.15131 7.4128,-7.21809 16.8632,-10.91018 29.01821,-11.33685 14.42554,-0.50637 25.91718,3.60248 34.19734,12.22727 5.0994,5.31165 7.67575,10.38223 8.85325,17.42424 0.77319,4.62397 0.51914,10.81074 -0.62499,15.22011 -2.91747,11.24356 -12.25402,20.56739 -24.6672,24.63355 -5.38246,1.76311 -14.52627,2.68353 -20.73805,2.0875 z m 13.65594,-12.47741 c 3.33533,-0.74316 6.96278,-2.24721 9.64371,-3.99858 2.4881,-1.62538 6.11347,-5.31541 7.46106,-7.59405 3.22822,-5.45869 3.99612,-13.09771 1.93702,-19.26934 -1.81933,-5.45305 -6.40848,-10.46931 -12.27968,-13.42255 -8.20416,-4.12673 -20.25789,-4.43417 -29.20835,-0.74498 -5.07639,2.09238 -10.30407,6.88994 -12.50851,11.47935 -4.14314,8.62546 -2.649,18.92626 3.71084,25.58302 4.73229,4.95323 10.31312,7.67352 17.68074,8.61821 3.21226,0.41188 10.32493,0.0705 13.56317,-0.65108 z m -538.99788,-23.52365 v -34.08 h 24.76609 c 25.70995,0 29.57549,0.15325 33.40094,1.32416 8.5944,2.63061 13.5263,9.20543 13.50741,18.00703 -0.0222,10.36719 -6.60973,18.00807 -16.97536,19.68989 -1.27264,0.20649 -9.72839,0.33501 -22.13908,0.33651 l -20.08,0.002 v 14.4 14.4 h -6.24 -6.24 z m 54.80939,-7.47965 c 2.75556,-1.3687 4.06516,-3.60648 4.06882,-6.9526 0.004,-3.26062 -1.26788,-5.3642 -4.07555,-6.74291 l -1.84266,-0.90484 -20.24,-0.0934 -20.24,-0.0934 v 7.86467 7.86466 l 20.4,-0.0912 20.4,-0.0913 z m 29.35061,7.47965 v -34.08 h 32 32 v 5.92 5.92 h -25.76 -25.76 v 7.2 7.2 h 16.8 16.8 v 5.76 5.76 h -16.8 -16.8 v 9.44001 9.44 h 27.2 27.2 v 5.76 5.76 h -33.44 -33.44 z m 79.36,0.14767 v -33.93234 l 26.16,0.10804 c 29.25964,0.12083 27.8294,0.0135 32.87999,2.46653 4.44909,2.16084 7.37786,5.35762 9.04519,9.87292 1.06697,2.8895 1.35622,8.53219 0.59344,11.57718 -1.37344,5.48263 -5.18202,10.29074 -10.10211,12.75333 -1.4313,0.71639 -3.10919,1.39761 -3.72864,1.51381 -0.73853,0.13855 -1.07136,0.35436 -0.96679,0.62688 0.26579,0.69263 16.66685,26.68555 16.83891,26.68682 0.088,6.4e-4 7.671205,-14.79078 16.851556,-32.86983 l 16.691584,-32.87101 h 3.899136 3.899104 l 11.822496,23.04 c 6.5024,12.672 14.345248,27.97201 17.428576,34.00001 l 5.606048,10.96 h -6.723936 -6.723968 l -4.208896,-8.32 -4.208896,-8.32 -16.8464,0.004 -16.8464,0.004 -4.16,8.23632 -4.159999,8.23632 -12.348705,0.0837 -12.3487,0.0837 -9.26452,-14.32372 -9.26447,-14.3237 -13.66682,-0.0834 -13.66678,-0.0834 v 14.40344 14.40344 h -6.24 -6.24 z m 119.03033,6.01234 c -0.0054,-0.22 -2.436,-5.13315 -5.401568,-10.91812 l -5.391936,-10.51811 -3.118272,6.03811 c -1.715072,3.32097 -4.180352,8.08104 -5.478432,10.57794 -1.29808,2.49691 -2.360128,4.69291 -2.360128,4.88 0,0.23356 3.409888,0.34018 10.88,0.34018 8.495808,0 10.877888,-0.0877 10.870336,-0.4 z m -67.85802,-13.22143 c 2.04887,-0.60844 4.3096,-2.5786 4.87028,-4.24427 0.5824,-1.7302 0.48076,-5.12827 -0.19322,-6.45967 -1.20998,-2.39025 -2.90131,-3.53821 -6.0783,-4.12551 -1.21824,-0.2252 -8.17178,-0.34913 -19.58986,-0.34913 h -17.70121 v 7.84 7.84 h 18.50192 c 15.86576,0 18.74249,-0.0714 20.19039,-0.50142 z m 200.667682,7.06142 v -34.08 h 31.999998 32 v 5.92 5.92 h -25.76 -25.759998 v 7.2 7.2 h 16.799998 16.8 v 5.76 5.76 h -16.8 -16.799998 v 9.44001 9.44 h 27.199998 27.2 v 5.76 5.76 h -33.44 -33.439998 z M -398.73401,600.17675 c 0.231,-0.0924 0.507,-0.0811 0.61333,0.0252 0.10634,0.10634 -0.0827,0.18197 -0.42,0.16807 -0.37278,-0.0154 -0.4486,-0.0912 -0.19333,-0.19333 z"
         id="path888" />
      <path
         style="fill:#626262;stroke-width:0.32"
         d="m 0.62598329,757.29675 c 0.23100799,-0.0924 0.50700801,-0.0811 0.61334401,0.0253 0.106336,0.10634 -0.082688,0.18197 -0.42000002,0.16807 -0.37279999,-0.0154 -0.44860799,-0.0912 -0.19334399,-0.19333 z m 89.59999871,0 c 0.231008,-0.0924 0.507008,-0.0811 0.613344,0.0253 0.106336,0.10634 -0.08269,0.18197 -0.42,0.16807 -0.3728,-0.0154 -0.448608,-0.0912 -0.193344,-0.19333 z m -45.943071,-16.36336 -0.07693,-16.10196 -3.010464,0.10196 c -1.655744,0.0561 -2.943232,-0.006 -2.86112,-0.13804 0.26816,-0.43091 5.875392,-0.28249 6.044896,0.16 0.08429,0.22 0.1144,7.528 0.06688,16.24 l -0.08637,15.84 z m -66.677759,14.74196 c -0.398016,-0.50754 -0.38672,-0.51886 0.120832,-0.12082 0.308,0.24155 0.56,0.49355 0.56,0.56 0,0.26337 -0.262784,0.0939 -0.680832,-0.43918 z M 184.04598,753.8212 c 0,-0.0371 0.192,-0.22683 0.42666,-0.42159 0.31884,-0.26461 0.42668,-0.24755 0.42668,0.0675 0,0.23187 -0.192,0.42158 -0.42668,0.42158 -0.23466,0 -0.42666,-0.0304 -0.42666,-0.0675 z m -265.193916,-0.36761 c 0.31136,-0.0811 0.74336,-0.0758 0.96,0.0119 0.216672,0.0877 -0.03808,0.15404 -0.56608,0.14752 -0.528,-0.007 -0.705248,-0.0782 -0.39392,-0.15937 z m 253.084446,-0.73824 c 0,-0.44 0.0726,-0.62 0.16141,-0.4 0.0888,0.22 0.0888,0.58 0,0.8 -0.0888,0.22 -0.16141,0.04 -0.16141,-0.4 z m -292.76982,-2.08 c 0.004,-0.704 0.0691,-0.95432 0.14563,-0.55627 0.0765,0.39805 0.0736,0.97405 -0.006,1.28 -0.0801,0.30595 -0.14272,-0.0197 -0.13917,-0.72373 z m 236.48,-0.32 c 0.004,-0.704 0.0691,-0.95432 0.14563,-0.55627 0.0765,0.39805 0.0736,0.97405 -0.006,1.28 -0.0801,0.30595 -0.14272,-0.0197 -0.13917,-0.72373 z m 92.76982,0.16 c 0,-0.44 0.0726,-0.62 0.16141,-0.4 0.0888,0.22 0.0888,0.58 0,0.8 -0.0888,0.22 -0.16141,0.04 -0.16141,-0.4 z M 87.75123,750.28868 c 0.01536,-0.37278 0.0912,-0.4486 0.193344,-0.19333 0.09245,0.231 0.08109,0.507 -0.02528,0.61333 -0.106336,0.10634 -0.181984,-0.0827 -0.168096,-0.42 z m 32.66528,-0.13333 c 0,-0.44 0.0726,-0.62 0.16141,-0.4 0.0888,0.22 0.0888,0.58 0,0.8 -0.0888,0.22 -0.16141,0.04 -0.16141,-0.4 z m -144.665278,-1.14667 c 0.01536,-0.37278 0.0912,-0.4486 0.193344,-0.19333 0.09245,0.231 0.08109,0.507 -0.02528,0.61333 -0.106336,0.10634 -0.181984,-0.0827 -0.168096,-0.42 z m 208.234748,-3.87193 c 0.23101,-0.0924 0.50701,-0.0811 0.61334,0.0252 0.10634,0.10633 -0.0827,0.18197 -0.42,0.16807 -0.3728,-0.0154 -0.4486,-0.0912 -0.19334,-0.19333 z m 1.92,0 c 0.23101,-0.0924 0.50701,-0.0811 0.61334,0.0252 0.10634,0.10633 -0.0827,0.18197 -0.42,0.16807 -0.3728,-0.0154 -0.4486,-0.0912 -0.19334,-0.19333 z M -4.4087686,740.36868 c 0.01536,-0.37278 0.0912,-0.4486 0.193344,-0.19333 0.092448,0.231 0.081088,0.507 -0.02528,0.61333 -0.106336,0.10634 -0.181984,-0.0827 -0.168096,-0.42 z m -4.45472,-1.09333 c 0,-0.44 0.07264,-0.62 0.161408,-0.4 0.088768,0.22 0.088768,0.58 0,0.8 -0.088768,0.22 -0.161408,0.04 -0.161408,-0.4 z m 83.8518386,-0.8 c 0.0064,-0.528 0.07824,-0.70526 0.159392,-0.39391 0.08112,0.31135 0.07581,0.74335 -0.01184,0.96 -0.08765,0.21665 -0.154016,-0.0381 -0.14752,-0.56609 z m -470.1171,-16.9964 -0.0253,-16.9964 3.12,-0.16778 c 1.716,-0.0923 3.17057,-0.12133 3.23238,-0.0646 0.10727,0.0985 -5.93674,33.24028 -6.18322,33.90514 -0.0652,0.176 -0.13,-7.32838 -0.1439,-16.6764 z m 337.894734,16.71558 c 0,-0.0664 0.252,-0.31845 0.56,-0.56 0.507552,-0.39804 0.518848,-0.38672 0.120832,0.12082 -0.418048,0.53304 -0.680832,0.70255 -0.680832,0.43918 z m 37.76,-1.25931 c 0,-0.0551 0.468,-0.52307 1.04,-1.04 l 1.04,-0.93987 -0.939872,1.04 c -0.876096,0.96943 -1.140128,1.18709 -1.140128,0.93987 z m 176.665246,-0.72654 c 0.0154,-0.37278 0.0912,-0.44861 0.19334,-0.19333 0.0925,0.231 0.0811,0.507 -0.0253,0.61333 -0.10633,0.10634 -0.18198,-0.0827 -0.16809,-0.42 z m -298.20288,-0.61333 c 0.006,-0.528 0.0782,-0.70526 0.1594,-0.39391 0.0811,0.31135 0.0758,0.74335 -0.0118,0.96 -0.0876,0.21665 -0.15402,-0.0381 -0.14752,-0.56609 z m 236.183712,0.57824 c 0.31136,-0.0811 0.74336,-0.0758 0.96,0.0119 0.216672,0.0877 -0.03808,0.15404 -0.56608,0.14752 -0.528,-0.007 -0.705248,-0.0782 -0.39392,-0.15937 z m 83.273918,-0.41824 c 0.31856,-0.352 0.6512,-0.64 0.7392,-0.64 0.088,0 -0.10064,0.288 -0.4192,0.64 -0.31856,0.352 -0.6512,0.64 -0.7392,0.64 -0.088,0 0.10064,-0.288 0.4192,-0.64 z M 58.285982,735.31453 c 0,-0.0665 0.252,-0.31845 0.56,-0.56 0.507552,-0.39804 0.518848,-0.38672 0.120832,0.12082 -0.418048,0.53304 -0.680832,0.70255 -0.680832,0.43918 z m -193.869472,-1.79918 c 0,-0.44 0.0726,-0.62 0.16141,-0.4 0.0888,0.22 0.0888,0.58 0,0.8 -0.0888,0.22 -0.16141,0.04 -0.16141,-0.4 z m 214.62864,0.08 c -0.398016,-0.50754 -0.38672,-0.51886 0.120832,-0.12082 0.308,0.24155 0.56,0.49355 0.56,0.56 0,0.26337 -0.262784,0.0939 -0.680832,-0.43918 z m -204.61232,-0.42129 c -0.11603,-0.18771 -0.1423,-0.40992 -0.0584,-0.4938 0.0839,-0.0839 0.23779,0.0697 0.34202,0.34129 0.21638,0.56387 0.032,0.66306 -0.28359,0.15251 z m 165.023681,-2.53871 c 0,-0.44 0.07264,-0.62 0.161408,-0.4 0.08877,0.22 0.08877,0.58 0,0.8 -0.08877,0.22 -0.161408,0.04 -0.161408,-0.4 z m 72.837919,-0.87472 c 0.75267,-0.0676 1.90467,-0.0666 2.56,0.002 0.65536,0.0688 0.0396,0.12407 -1.36845,0.1229 -1.408,-10e-4 -1.94419,-0.0574 -1.19155,-0.12502 z m 88.92025,-0.005 c -0.082,-0.132 0.66551,-0.19931 1.66112,-0.14957 3.12532,0.15613 3.50247,0.29188 0.94906,0.34162 -1.3536,0.0264 -2.52819,-0.06 -2.61018,-0.19205 z m -31.9487,-3.1786 c 0.23101,-0.0924 0.50701,-0.0811 0.61334,0.0252 0.10634,0.10633 -0.0827,0.18197 -0.42,0.16807 -0.3728,-0.0154 -0.4486,-0.0912 -0.19334,-0.19333 z m -260.530555,-1.7814 c 0.08157,-0.132 1.139328,-0.24 2.35056,-0.24 1.211232,0 2.268991,0.108 2.350559,0.24 0.08157,0.132 -0.976159,0.24 -2.350559,0.24 -1.3744,0 -2.432128,-0.108 -2.35056,-0.24 z m 180.799997,0 c 0.08157,-0.132 1.139328,-0.24 2.35056,-0.24 1.211232,0 2.268992,0.108 2.35056,0.24 0.08157,0.132 -0.97616,0.24 -2.35056,0.24 -1.3744,0 -2.432128,-0.108 -2.35056,-0.24 z M -32.994016,724.3437 c 0.22,-0.0888 0.58,-0.0888 0.8,0 0.22,0.0888 0.04,0.1614 -0.4,0.1614 -0.44,0 -0.62,-0.0726 -0.4,-0.1614 z"
         id="path886" />
      <path
         style="fill:#003298;stroke-width:0.32"
         d="m -401.87982,600.1852 c -0.003,-0.14842 1.40081,-7.88642 3.12,-17.19555 l 3.12581,-16.92569 0.0829,16.89617 c 0.0456,9.29289 0.0456,16.92825 0,16.96745 -0.27049,0.23273 -6.32389,0.47915 -6.32866,0.25762 z"
         id="path884" />
      <path
         style="fill:#2f2f2f;stroke-width:0.32"
         d="m -57.714016,764.55535 c 0.31856,-0.352 0.6512,-0.64 0.7392,-0.64 0.088,0 -0.10064,0.288 -0.4192,0.64 -0.31856,0.352 -0.6512,0.64 -0.7392,0.64 -0.088,0 0.10064,-0.288 0.4192,-0.64 z m -80.236254,-7.26632 c 0.39805,-0.0765 0.97405,-0.0736 1.28,0.006 0.30592,0.0801 -0.0198,0.14272 -0.72374,0.13917 -0.704,-0.004 -0.95434,-0.0691 -0.55626,-0.14563 z m 23.51625,0.006 c 0.308,-0.0805 0.812,-0.0805 1.12,0 0.308,0.0805 0.056,0.14635 -0.56,0.14635 -0.616,0 -0.868,-0.0659 -0.56,-0.14635 z m 30.406084,-10e-4 c 0.31136,-0.0811 0.74336,-0.0758 0.96,0.0119 0.216672,0.0876 -0.03808,0.15403 -0.56608,0.14751 -0.528,-0.007 -0.705248,-0.0782 -0.39392,-0.15937 z m 44.15392,10e-4 c 0.308,-0.0805 0.812,-0.0805 1.12,0 0.308,0.0805 0.056,0.14635 -0.56,0.14635 -0.616,0 -0.868,-0.0659 -0.56,-0.14635 z m 22.08,0 c 0.308,-0.0805 0.812,-0.0805 1.12,0 0.308,0.0805 0.056,0.14635 -0.56,0.14635 -0.616,0 -0.868,-0.0659 -0.56,-0.14635 z m 19.5199993,0 c 0.308,-0.0805 0.812,-0.0805 1.12,0 0.308,0.0805 0.056,0.14635 -0.56,0.14635 -0.616,0 -0.868,-0.0659 -0.56,-0.14635 z m 120.3199967,0 c 0.308,-0.0805 0.812,-0.0805 1.12,0 0.308,0.0805 0.056,0.14635 -0.56,0.14635 -0.616,0 -0.868,-0.0659 -0.56,-0.14635 z m 42.24,0 c 0.308,-0.0805 0.812,-0.0805 1.12,0 0.308,0.0805 0.056,0.14635 -0.56,0.14635 -0.616,0 -0.868,-0.0659 -0.56,-0.14635 z m 12.48608,-10e-4 c 0.31136,-0.0811 0.74336,-0.0758 0.96,0.0119 0.21667,0.0876 -0.0381,0.15403 -0.56608,0.14751 -0.528,-0.007 -0.70525,-0.0782 -0.39392,-0.15937 z m 33.59392,10e-4 c 0.308,-0.0805 0.812,-0.0805 1.12,0 0.308,0.0805 0.056,0.14635 -0.56,0.14635 -0.616,0 -0.868,-0.0659 -0.56,-0.14635 z m -123.64083,-1.2994 c -0.398016,-0.50754 -0.38672,-0.51886 0.120832,-0.12082 0.533024,0.41804 0.70256,0.68082 0.439168,0.68082 -0.06643,0 -0.318432,-0.252 -0.56,-0.56 z m 86.4,0 c -0.39802,-0.50754 -0.38672,-0.51886 0.12083,-0.12082 0.308,0.24155 0.56,0.49355 0.56,0.56 0,0.26337 -0.26278,0.0939 -0.68083,-0.43918 z m -292.16,-0.32 c -0.39801,-0.50754 -0.38672,-0.51886 0.12083,-0.12082 0.53303,0.41804 0.70256,0.68082 0.43917,0.68082 -0.0664,0 -0.31843,-0.252 -0.56,-0.56 z m 324.48,0 c -0.39802,-0.50754 -0.38672,-0.51886 0.12083,-0.12082 0.53302,0.41804 0.70256,0.68082 0.43917,0.68082 -0.0664,0 -0.31843,-0.252 -0.56,-0.56 z m -22.35917,-0.84082 c 0,-0.0664 0.252,-0.31845 0.56,-0.56 0.50755,-0.39804 0.51885,-0.38672 0.12083,0.12082 -0.41805,0.53304 -0.68083,0.70255 -0.68083,0.43918 z m -221.819996,-1.05778 c 0.231008,-0.0924 0.507008,-0.0811 0.613344,0.0252 0.106336,0.10633 -0.08269,0.18197 -0.42,0.16807 -0.3728,-0.0154 -0.448608,-0.0912 -0.193344,-0.19333 z m 22.22608,-0.003 c 0.31136,-0.0811 0.74336,-0.0758 0.96,0.0119 0.216672,0.0876 -0.03808,0.15403 -0.56608,0.14751 -0.528,-0.007 -0.705248,-0.0782 -0.39392,-0.15937 z m 139.993916,0.01 c 0.22,-0.0888 0.58,-0.0888 0.8,0 0.22,0.0888 0.04,0.1614 -0.4,0.1614 -0.44,0 -0.62,-0.0726 -0.4,-0.1614 z m -181.739996,-0.32667 c 0.231008,-0.0924 0.507008,-0.0811 0.613344,0.0252 0.106336,0.10633 -0.08269,0.18197 -0.42,0.16807 -0.3728,-0.0154 -0.448608,-0.0912 -0.193344,-0.19333 z m 273.339996,-0.54218 c 0,-0.0664 0.252,-0.31845 0.56,-0.56 0.50755,-0.39804 0.51885,-0.38672 0.12083,0.12082 -0.41805,0.53304 -0.68083,0.70255 -0.68083,0.43918 z m -228.159997,-0.32 c 0,-0.0664 0.252,-0.31845 0.56,-0.56 0.507552,-0.39804 0.518848,-0.38672 0.120832,0.12082 -0.418048,0.53304 -0.680832,0.70255 -0.680832,0.43918 z M 183.40598,751.916 c 0.41334,-0.44 0.82355,-0.8 0.91155,-0.8 0.088,0 -0.17821,0.36 -0.59155,0.8 -0.41334,0.44 -0.82355,0.8 -0.91155,0.8 -0.088,0 0.17821,-0.36 0.59155,-0.8 z m -323.24083,-0.08 c -0.39801,-0.50754 -0.38672,-0.51886 0.12084,-0.12082 0.308,0.24155 0.56,0.49355 0.56,0.56 0,0.26337 -0.26279,0.0939 -0.68084,-0.43918 z m 178.976737,-1.27145 -0.0559,-1.67144 -4.72,-0.0978 -4.72,-0.0978 4.730048,-0.0708 c 5.288544,-0.0791 5.155296,-0.13873 4.946048,2.21263 -0.123488,1.3878 -0.12464,1.38607 -0.180192,-0.27484 z m -85.408735,-0.0885 c 0,-0.792 0.0624,-1.116 0.138656,-0.72 0.07629,0.396 0.07629,1.044 0,1.44 -0.07626,0.396 -0.138656,0.072 -0.138656,-0.72 z m 22.067072,0 c 0,-0.616 0.06586,-0.868 0.146336,-0.56 0.08051,0.308 0.08051,0.812 0,1.12 -0.08048,0.308 -0.146336,0.056 -0.146336,-0.56 z m -36.823712,-0.64 c 0,-0.44 0.07264,-0.62 0.161408,-0.4 0.08877,0.22 0.08877,0.58 0,0.8 -0.08877,0.22 -0.161408,0.04 -0.161408,-0.4 z m 11.949472,-0.96 c -0.108768,-0.176 -0.04528,-0.32 0.14112,-0.32 0.186368,0 0.33888,0.144 0.33888,0.32 0,0.176 -0.06349,0.32 -0.14112,0.32 -0.0776,0 -0.230112,-0.144 -0.33888,-0.32 z m 233.359996,-6.61193 c 0.22,-0.0888 0.58,-0.0888 0.8,0 0.22,0.0888 0.04,0.1614 -0.4,0.1614 -0.44,0 -0.62,-0.0726 -0.4,-0.1614 z m -231.599996,-1.19383 c 0,-0.0692 0.223488,-0.21152 0.496608,-0.31634 0.2848,-0.10928 0.413248,-0.0556 0.30112,0.12576 -0.187904,0.30407 -0.797728,0.44975 -0.797728,0.19058 z m 150.425246,-0.70161 c 0.0154,-0.37278 0.0912,-0.4486 0.19334,-0.19333 0.0924,0.231 0.0811,0.507 -0.0253,0.61333 -0.10633,0.10634 -0.18198,-0.0827 -0.16809,-0.42 z m 32.32,0 c 0.0154,-0.37278 0.0912,-0.4486 0.19334,-0.19333 0.0924,0.231 0.0811,0.507 -0.0253,0.61333 -0.10633,0.10634 -0.18198,-0.0827 -0.16809,-0.42 z m -161.562878,-0.93333 c 0.0064,-0.528 0.07824,-0.70526 0.159392,-0.39391 0.08112,0.31135 0.07581,0.74335 -0.01184,0.96 -0.08765,0.21665 -0.154016,-0.0381 -0.14752,-0.56609 z m -24.97184,-0.16 c 0,-0.44 0.07264,-0.62 0.161408,-0.4 0.08877,0.22 0.08877,0.58 0,0.8 -0.08877,0.22 -0.161408,0.04 -0.161408,-0.4 z m 46.7318394,-0.16 c 0.0064,-0.528 0.07824,-0.70526 0.159392,-0.39391 0.08112,0.31135 0.075808,0.74335 -0.01184,0.96 -0.087648,0.21665 -0.154016,-0.0381 -0.14752,-0.56609 z m 96.0976306,-1.12 c 0.31856,-0.352 0.6512,-0.64 0.7392,-0.64 0.088,0 -0.10064,0.288 -0.4192,0.64 -0.31856,0.352 -0.6512,0.64 -0.7392,0.64 -0.088,0 0.10064,-0.288 0.4192,-0.64 z M 4.5259832,737.55453 c 0,-0.0665 0.252,-0.31845 0.56,-0.56 0.507552,-0.39804 0.518848,-0.38672 0.120832,0.12082 -0.418048,0.53304 -0.680832,0.70255 -0.680832,0.43918 z m -46.0799992,-0.93931 c 0,-0.0551 0.468,-0.52307 1.04,-1.04 l 1.04,-0.93987 -0.939872,1.04 c -0.876096,0.96943 -1.140128,1.18709 -1.140128,0.93987 z m 187.306656,-0.36579 c 0,-0.25626 0.12237,-0.39031 0.2719,-0.29789 0.14954,0.0924 0.18903,0.30208 0.0878,0.46592 -0.25875,0.41868 -0.35968,0.37154 -0.35968,-0.16803 z M 1.6459833,735.59535 c 0.413344,-0.44 0.823552,-0.8 0.911552,-0.8 0.088,0 -0.178208,0.36 -0.591552,0.8 -0.413344,0.44 -0.823552,0.8 -0.911552,0.8 -0.088,0 0.178208,-0.36 0.591552,-0.8 z m 208.3199967,0.35918 c 0,-0.0664 0.252,-0.31845 0.56,-0.56 0.50755,-0.39804 0.51885,-0.38672 0.12083,0.12082 -0.41805,0.53304 -0.68083,0.70255 -0.68083,0.43918 z M 91.272638,735.6648 c 0.07334,-0.0498 0.421344,-0.3018 0.773344,-0.56 0.592,-0.43425 0.607072,-0.42745 0.200832,0.0905 -0.241568,0.308 -0.589568,0.56 -0.773344,0.56 -0.183776,0 -0.274144,-0.0408 -0.200832,-0.0906 z m 42.492512,-1.42945 c -0.39802,-0.50754 -0.38672,-0.51886 0.12083,-0.12082 0.308,0.24155 0.56,0.49355 0.56,0.56 0,0.26337 -0.26278,0.0939 -0.68083,-0.43918 z m -94.263263,-1.36 c 0,-0.968 0.05997,-1.364 0.133312,-0.88 0.07331,0.484 0.07331,1.276 0,1.76 -0.07334,0.484 -0.133312,0.088 -0.133312,-0.88 z m 182.263263,1.04 c -0.39802,-0.50754 -0.38672,-0.51886 0.12083,-0.12082 0.53302,0.41804 0.70256,0.68082 0.43917,0.68082 -0.0664,0 -0.31843,-0.252 -0.56,-0.56 z m -124.179168,-1.2586 c 0.231008,-0.0924 0.507008,-0.0811 0.613344,0.0252 0.106336,0.10633 -0.08269,0.18197 -0.42,0.16807 -0.3728,-0.0154 -0.448608,-0.0912 -0.193344,-0.19333 z m -122.179998,-5.7014 c 0.413344,-0.44 0.823552,-0.8 0.911552,-0.8 0.088,0 -0.178208,0.36 -0.591552,0.8 -0.413344,0.44 -0.823552,0.8 -0.911552,0.8 -0.088,0 0.178208,-0.36 0.591552,-0.8 z m 227.165466,-2.17501 c 0.14109,-0.14025 1.32259,-0.21093 2.62554,-0.15705 l 2.36899,0.098 -2.62554,0.15705 c -1.44403,0.0864 -2.51008,0.0423 -2.36899,-0.098 z m -88.99702,-0.13971 c 0.75267,-0.0676 1.90467,-0.0666 2.56,0.002 0.65536,0.0688 0.0396,0.12407 -1.36845,0.1229 -1.408,-10e-4 -1.94419,-0.0574 -1.19155,-0.12502 z"
         id="path882" />
      <path
         style="fill:#e8e8e8;stroke-width:0.32;fill-opacity:1"
         d="m -63.314016,766.28075 c -0.264,-0.0929 -1.009184,-0.39205 -1.655936,-0.66487 -1.088704,-0.45923 -1.14944,-0.55417 -0.818912,-1.27963 0.270784,-0.5943 0.516192,-0.73334 1.015936,-0.57558 0.3624,0.1144 1.398432,0.28447 2.302336,0.37793 1.383456,0.14305 1.7504,0.0629 2.32,-0.50666 0.849792,-0.84981 0.878688,-2.14591 0.0576,-2.58533 -0.340416,-0.18219 -1.132416,-0.33126 -1.76,-0.33126 -0.627552,0 -1.140416,-0.108 -1.139648,-0.24 0,-0.132 0.418144,-0.86822 0.927552,-1.63604 l 0.926176,-1.39604 -1.616416,-0.84443 c -2.29952,-1.20128 -2.961728,-2.57652 -2.948672,-6.12349 0.01984,-5.38334 2.427264,-11.56413 5.793472,-14.87414 1.945696,-1.9132 4.295968,-2.85656 7.156512,-2.87249 4.223552,-0.0235 5.985664,1.57315 6.318976,5.72583 0.191616,2.3868 0.02848,2.54905 -2.847584,2.83086 l -1.80864,0.17722 0.04291,-1.86636 c 0.0327,-1.42233 -0.100768,-2.02512 -0.56096,-2.53364 -0.840736,-0.929 -2.941024,-0.90053 -4.377376,0.0593 -2.918944,1.95062 -5.97904,12.25134 -4.474656,15.0623 0.628992,1.17529 2.225056,1.65103 3.604896,1.07451 1.317408,-0.55046 2.95472,-2.36441 3.426336,-3.79598 l 0.351648,-1.06745 1.943584,0.1095 c 1.260896,0.071 2.00224,0.26234 2.11056,0.54463 0.209952,0.54714 -1.267936,3.29159 -2.628448,4.88105 -1.320544,1.54276 -3.803552,2.89277 -5.787232,3.14654 -1.02624,0.13128 -1.741792,0.42966 -2.106912,0.87854 -0.786048,0.96642 -0.723744,1.07702 0.746752,1.32546 0.722592,0.12208 1.603328,0.51146 1.957152,0.86527 1.316192,1.31621 0.07613,4.27637 -2.315232,5.52661 -0.929888,0.48617 -3.452608,0.85513 -4.155776,0.6078 z m -78.394234,-9.73222 c -0.78884,-0.3676 -1.70416,-0.91245 -2.03405,-1.21078 -1.01501,-0.91788 -1.87469,-2.96772 -2.04851,-4.88452 l -0.1658,-1.82846 1.88128,-0.53283 c 1.03472,-0.29305 2.13332,-0.60638 2.44132,-0.69627 0.4528,-0.13216 0.56134,0.0398 0.56704,0.89811 0.0106,1.60085 1.07696,3.66378 2.19193,4.24035 1.39312,0.72042 4.5641,0.6555 6.09351,-0.12475 1.58201,-0.80708 2.80115,-2.2706 3.23568,-3.88431 0.69795,-2.59206 -0.18992,-3.60001 -5.36701,-6.0929 -3.33955,-1.60809 -4.04906,-2.08384 -4.8,-3.21855 -0.76675,-1.15867 -0.88115,-1.64615 -0.88115,-3.7549 0,-1.93721 0.16572,-2.77661 0.82601,-4.18412 1.80567,-3.849 5.90224,-6.61457 10.28,-6.93998 5.07546,-0.37727 8.06586,1.7421 8.69728,6.16396 l 0.18611,1.30323 -1.83472,0.55948 c -1.00905,0.30771 -2.07116,0.62604 -2.36022,0.70739 -0.40509,0.11402 -0.61226,-0.21358 -0.90394,-1.42941 -0.5311,-2.21399 -1.48726,-3.01474 -3.77491,-3.16138 -1.33033,-0.0853 -2.13763,0.0413 -2.93286,0.4599 -1.51946,0.7998 -2.92135,2.66071 -3.11859,4.13978 -0.25076,1.88006 0.66649,2.77744 4.93843,4.83133 2.01123,0.96699 4.13811,2.18074 4.72633,2.69722 4.27325,3.75195 1.4786,11.9148 -5.21107,15.22102 -2.28137,1.1275 -2.64153,1.20777 -5.81494,1.29586 -2.88637,0.0801 -3.59344,-0.004 -4.81715,-0.57447 z m 24.47423,0.19509 c -3.00768,-1.33676 -4.0255,-4.98267 -2.89347,-10.36429 1.03488,-4.91957 2.92579,-8.62676 5.64919,-11.07533 3.21801,-2.89326 8.56867,-3.54476 11.5686,-1.40862 2.4257,1.72727 2.931717,5.93519 1.35879,11.29997 -2.4033,8.19698 -6.36301,12.02032 -12.41511,11.98747 -1.2694,-0.007 -2.74,-0.20453 -3.268,-0.4392 z m 5.45504,-3.06827 c 0.75892,0 2.71178,-1.95452 3.4882,-3.49119 1.81136,-3.58492 3.16435,-9.8016 2.61209,-12.00194 -0.72534,-2.89008 -4.13251,-2.75447 -6.42861,0.25587 -1.86444,2.44442 -3.9303,9.65457 -3.60166,12.57031 0.22666,2.01098 1.52995,3.19544 3.06112,2.78202 0.2344,-0.0633 0.62538,-0.11507 0.86886,-0.11507 z m 25.030021,2.58552 c -0.977536,-0.87408 -1.043712,-1.06537 -1.024512,-2.96 0.01472,-1.44635 0.68688,-4.54178 2.350815,-10.82552 1.281664,-4.84 2.396896,-8.908 2.478336,-9.04 0.143616,-0.23277 4.590304,-0.35487 4.590304,-0.12604 0,0.0627 -1.008,3.90964 -2.24,8.5488 -2.383296,8.97438 -2.659328,10.9303 -1.621024,11.48598 1.894496,1.01391 4.514976,-0.34234 5.877184,-3.04178 0.69552,-1.37831 1.921152,-5.33543 3.266656,-10.54696 0.63616,-2.464 1.302912,-4.948 1.481728,-5.52 l 0.325088,-1.04 h 2.2152 c 1.218336,0 2.215168,0.10289 2.215168,0.22865 0,0.12576 -1.390944,5.45376 -3.090944,11.84 l -3.090944,11.61135 h -2.069056 -2.069056 l 0.184544,-0.92267 c 0.101472,-0.50746 0.285824,-1.33547 0.4096,-1.84 0.2176,-0.88679 0.179936,-0.87114 -1.130752,0.47005 -1.809568,1.85169 -3.530688,2.59683 -6.018336,2.60559 -1.75776,0.006 -2.1192,-0.10408 -3.039999,-0.92745 z m 43.582143,0.1976 c -0.952416,-0.50365 -1.626656,-1.1779 -2.130336,-2.13033 -2.042464,-3.86237 0.2952,-13.70042 4.263488,-17.94284 2.004096,-2.14253 3.629536,-3.06029 6.278784,-3.54512 3.798688,-0.69519 6.617472,0.38272 7.893408,3.01843 1.991648,4.11424 -0.677088,14.02738 -4.918112,18.2684 -2.194656,2.19464 -4.374688,3.06834 -7.656096,3.06834 -1.82336,0 -2.644256,-0.16212 -3.731136,-0.73688 z m 5.826464,-2.79268 c 2.31792,-0.64379 4.176544,-3.71785 5.5816,-9.23147 1.230176,-4.82753 0.963328,-7.29398 -0.871456,-8.05396 -2.015168,-0.83471 -4.476416,0.68788 -5.97296,3.69499 -1.136288,2.28325 -2.336128,6.62816 -2.532096,9.16929 -0.209536,2.71712 0.205632,3.86602 1.599904,4.42764 0.917248,0.36947 0.84064,0.36969 2.195008,-0.007 z m 16.746336,2.9967 c -2.466464,-1.30322 -3.342816,-3.01548 -3.35296,-6.55134 -0.01344,-4.60899 2.148576,-10.25139 5.212,-13.60325 2.240256,-2.45119 5.036607,-3.76542 8.028575,-3.77327 2.6597444,-0.007 3.8809284,0.52564 5.2158404,2.27483 0.798592,1.04643 0.90576,1.47474 0.980864,3.92033 0.046368,1.51006 -0.097632,3.60956 -0.32,4.66556 l -0.40432,1.92 -6.7570884,0.0862 -6.757055,0.0862 -0.362944,1.80713 c -0.576992,2.8731 -0.470464,4.08348 0.456384,5.18496 1.781088,2.1167 5.117471,1.33793 6.958911,-1.62435 l 0.969632,-1.5598 1.9460804,0.2122 c 1.070336,0.11671 1.982752,0.24177 2.027552,0.27792 0.0448,0.0361 -0.472736,0.92317 -1.150112,1.97117 -2.2999044,3.55843 -5.3440324,5.24799 -9.4147834,5.22548 -1.475104,-0.008 -2.66528,-0.19707 -3.276576,-0.52005 z M -8.8162566,740.9118 c 0.621824,-3.14932 -0.416608,-4.83645 -2.9768324,-4.83645 -1.383584,0 -1.769248,0.15373 -2.861696,1.14069 -1.196831,1.08125 -2.899231,3.92999 -2.899231,4.85143 0,0.33827 0.874752,0.40799 4.230303,0.33717 l 4.2303364,-0.0893 z m 6.9829119,15.60924 c -1.62528,-0.82638 -2.5824319,-2.54033 -2.5936319,-4.64447 l -0.00704,-1.31877 1.6039039,-0.21276 c 0.882144,-0.11703 1.818144,-0.29498 2.08000001,-0.39547 0.34783999,-0.13348 0.47609599,0.0463 0.47609599,0.66743 0,1.22085 0.77855999,2.55295 1.751072,2.99605 2.8097279,1.2802 6.5689279,-0.83222 6.5689279,-3.69129 0,-1.26793 -0.986336,-2.10758 -3.648672,-3.10604 -3.0087999,-1.12841 -4.19049591,-1.91511 -4.7972479,-3.19378 -1.982624,-4.17802 2.442368,-10.07185 8.1945919,-10.91478 3.8756478,-0.56794 6.9713278,1.62999 6.9713278,4.94964 0,0.83267 -0.143232,0.93586 -1.92,1.38344 -1.852576,0.46666 -1.92,0.46186 -1.92,-0.13651 0,-0.8757 -0.839552,-2.39369 -1.4543358,-2.6296 -0.917472,-0.35207 -2.71152,-0.21219 -3.676128,0.28664 -1.72064,0.88977 -2.519168,3.67676 -1.349536,4.71017 0.308,0.27212 1.64,0.9422 2.96,1.48905 4.5829758,1.89863 5.5771198,2.88833 5.5375358,5.51284 -0.04736,3.13877 -2.383264,6.35465 -5.8333438,8.03082 -1.122048,0.54514 -2.174528,0.73677 -4.5041919,0.82012 -2.640896,0.0945 -3.223712,0.0154 -4.439328,-0.60273 z m 90.0393267,0.39137 c -0.83392,-0.36682 -1.821504,-1.4774 -2.264128,-2.54604 l -0.352448,-0.85102 -1.039168,1.68 c -0.95984,1.55178 -1.132384,1.68 -2.260672,1.68 h -1.221504 l 1.088032,-4.08 c 0.5984,-2.244 2.507328,-9.408 4.242048,-15.92 l 3.154016,-11.84 2.286912,-0.094 c 1.257792,-0.0517 2.283584,0.0203 2.27952,0.16 -0.0042,0.13971 -0.633248,2.55802 -1.398176,5.37402 -0.764928,2.816 -1.342432,5.17516 -1.28336,5.24258 0.0591,0.0674 0.641792,-0.34659 1.294912,-0.92002 1.620576,-1.4229 2.958816,-1.92278 5.143744,-1.92136 2.43754,0.002 3.75283,0.79683 4.64307,2.80733 1.3392,3.0244 0.52183,8.79498 -1.98221,13.99446 -2.360124,4.90061 -5.302044,7.21198 -9.429084,7.40812 -1.24384,0.0591 -2.549504,-0.0192 -2.901504,-0.17405 z m 4.63936,-3.71672 c 1.91008,-0.98774 3.343264,-3.67802 4.660768,-8.74889 0.965856,-3.71733 1.026272,-6.39627 0.16816,-7.456 -1.429984,-1.76593 -5.222368,-0.46498 -6.872,2.35738 -1.098432,1.87934 -2.820832,8.29326 -2.87328,10.69973 -0.03664,1.68067 0.07178,2.095 0.732768,2.8 0.90864,0.96915 2.694816,1.11763 4.183584,0.34778 z m 26.400638,3.41706 c -0.704,-0.33385 -1.52649,-0.88462 -1.82781,-1.22392 -3.08313,-3.4721 -1.17427,-13.39794 3.60855,-18.76416 4.97053,-5.57681 13.07993,-5.19794 14.33677,0.6698 0.36214,1.69072 0.3166,2.57304 -0.32903,6.37462 l -0.33859,1.99373 -6.75766,0.0863 -6.75767,0.0863 -0.41568,1.76 c -0.22864,0.968 -0.35571,2.38895 -0.28237,3.15766 0.38007,3.98326 5.27223,4.1625 7.72349,0.28298 l 0.96,-1.51936 1.92,0.19534 c 1.056,0.10744 1.97021,0.24135 2.03155,0.29759 0.23165,0.2123 -2.28128,3.67828 -3.3423,4.60985 -2.02058,1.77411 -3.55981,2.36004 -6.52925,2.48547 -2.17705,0.092 -2.97552,-0.006 -4,-0.49213 z m 11.61005,-14.6974 c 0.12646,-0.308 0.22995,-1.47272 0.22995,-2.58827 0,-1.74552 -0.10531,-2.11356 -0.75545,-2.64 -1.43034,-1.15823 -4.13709,-0.66438 -5.68842,1.03787 -0.70925,0.77819 -1.7896,2.77871 -2.17664,4.0304 l -0.22262,0.72 h 4.19161 c 3.69107,0 4.21907,-0.0669 4.42157,-0.56 z m 31.10995,15.05401 c -0.93741,-0.34268 -1.91283,-1.49041 -2.09507,-2.46519 -0.2263,-1.21057 0.34336,-4.0204 2.35763,-11.62882 l 1.54608,-5.84 h -1.57856 c -1.32713,0 -1.54669,-0.083 -1.37856,-0.5212 0.11002,-0.28666 0.35677,-1.14367 0.54832,-1.90446 l 0.34832,-1.38326 1.63555,-0.0955 1.63559,-0.0955 0.88563,-2.85928 c 0.4871,-1.5726 0.99574,-2.96094 1.13033,-3.0852 0.13463,-0.12426 1.12064,-0.28503 2.19117,-0.35727 l 1.94643,-0.13134 -0.88438,3.29654 -0.88438,3.29655 h 2.21795 c 1.21987,0 2.21795,0.11786 2.21795,0.26192 0,0.14405 -0.22157,1.00805 -0.49238,1.92 l -0.49242,1.65808 h -2.21866 -2.21865 l -0.47338,1.68 c -1.74493,6.19312 -3.09068,11.61792 -3.12793,12.60903 -0.0569,1.51319 0.66092,2.03097 2.81561,2.03097 h 1.66989 l -0.43571,1.65163 c -0.23962,0.9084 -0.62259,1.77019 -0.85104,1.9151 -0.45677,0.28975 -5.24899,0.32741 -6.01533,0.0473 z m 12.64,-0.0793 c -3.86691,-1.59947 -2.7104,-8.98891 1.90371,-12.1635 2.05223,-1.41197 3.69159,-1.91048 7.53475,-2.2912 1.84884,-0.18316 3.48506,-0.45181 3.636,-0.59699 0.15098,-0.14519 0.35092,-1.21591 0.44429,-2.37937 0.21715,-2.70511 -0.27443,-3.38422 -2.44835,-3.38245 -1.7936,0.002 -3.2599,0.83054 -4.26038,2.40889 -0.69696,1.09952 -0.79364,1.14349 -2.13469,0.9708 -0.77255,-0.0995 -1.75376,-0.18089 -2.18048,-0.18089 h -0.77581 l 0.74048,-1.32152 c 1.84854,-3.29907 5.41997,-5.18384 9.86048,-5.20373 2.83798,-0.0127 4.05584,0.37257 5.21043,1.64839 1.48032,1.63574 1.29459,3.48042 -1.34413,13.35032 -0.89305,3.3404 -1.71488,6.7604 -1.82624,7.6 l -0.20252,1.52654 h -2.23437 -2.2344 l 0.21747,-1.2 c 0.11958,-0.66 0.2977,-1.56 0.39574,-2 0.1568,-0.70355 -0.01,-0.61876 -1.38182,0.70337 -2.06742,1.99215 -3.92346,2.80614 -6.36016,2.78932 -1.056,-0.007 -2.208,-0.13238 -2.56,-0.27798 z m 7.56848,-3.81666 c 0.79955,-0.50707 1.78816,-1.39159 2.1969,-1.96559 0.93116,-1.30773 2.21696,-4.39798 2.22704,-5.35246 0.007,-0.62646 -0.15668,-0.72 -1.25668,-0.72 -4.67945,0 -8.01574,2.71751 -8.01574,6.52911 0,1.11971 0.1561,1.54394 0.7112,1.93275 1.07171,0.75065 2.51914,0.60238 4.13728,-0.42381 z m 25.07152,3.67022 c -1.89888,-0.84396 -3.04,-2.78584 -3.04,-5.17326 0,-0.97228 0.0356,-0.99454 2.08,-1.30007 1.84816,-0.2762 2.08,-0.25175 2.08,0.21935 0,1.17234 0.75552,2.58901 1.61882,3.03543 2.83952,1.46838 6.69651,-0.60245 6.7,-3.59725 0,-1.33816 -0.83642,-2.09516 -3.30967,-2.98984 -3.20883,-1.16079 -4.50771,-2.03584 -5.15606,-3.47358 -1.75107,-3.88321 2.07801,-9.4047 7.34691,-10.59414 4.24627,-0.95859 7.35725,0.81398 7.92688,4.51659 l 0.17715,1.1515 -1.59645,0.3685 c -2.27452,0.52503 -2.50758,0.48358 -2.50758,-0.44605 0,-0.448 -0.35344,-1.168 -0.78544,-1.6 -1.93472,-1.9347 -5.7583,-0.31361 -6.15011,2.60746 -0.15789,1.17736 -0.0817,1.3779 0.73974,1.94719 0.50371,0.34906 1.92381,1.03069 3.15581,1.51472 4.3071,1.69221 5.65587,3.44069 4.98086,6.45696 -0.71772,3.20713 -3.18345,5.96754 -6.43366,7.20252 -1.90538,0.72398 -6.34806,0.81138 -7.8272,0.15397 z m -305.889883,-3.94827 c 0.5984,-2.244 2.507328,-9.408 4.242048,-15.92 l 3.154016,-11.84 2.325312,-0.0948 2.325311,-0.0948 -0.220767,0.89479 c -0.121408,0.49214 -2.010688,7.62783 -4.1984,15.85709 -2.18768,8.22925 -3.977632,15.03326 -3.977632,15.12 0,0.0867 -1.066048,0.15771 -2.36896,0.15771 h -2.36896 z m 119.580542,3.84 c 0.07062,-0.132 4.057632,-7.332 8.860032,-16 l 8.731648,-15.76 h 2.838848 2.838816 v 16 16 h -2.59616 -2.596128 l 0.116128,-4.08 0.11616,-4.08 -4.697216,-0.0884 -4.697216,-0.0884 -2.145472,4.16842 -2.14544,4.16843 h -2.376224 c -1.306912,0 -2.318432,-0.108 -2.247776,-0.24 z m 18.469344,-15.87022 c 0,-2.17262 0.09389,-5.48462 0.20864,-7.36 0.120352,-1.96718 0.0865,-3.40937 -0.08,-3.4088 -0.251328,9.6e-4 -7.48864,14.0477 -7.48864,14.53463 0,0.10141 1.656,0.18439 3.68,0.18439 h 3.68 z m 8.32,15.74037 c 0,-0.20342 1.231648,-4.99142 2.737024,-10.64 1.505344,-5.64858 2.878912,-10.81015 3.05232,-11.47015 l 0.315328,-1.2 h 2.107648 2.107679 l -0.233888,1.04 c -0.128608,0.572 -0.312,1.38809 -0.40752,1.81354 -0.146528,0.65267 0.01792,0.56155 1.052032,-0.58317 2.109472,-2.33494 4.868288,-3.30155 7.44368,-2.60806 1.504512,0.40512 2.150016,1.18508 2.481504,2.99838 l 0.223168,1.22069 0.800256,-1.12471 c 2.600928,-3.6555 8.241312,-4.4676 10.256064,-1.47667 0.650912,0.9663 0.725344,1.35519 0.542336,2.83381 -0.164064,1.3255 -3.908288,16.07233 -4.825664,19.00619 -0.14464,0.46264 -0.560768,0.56 -2.393536,0.56 -1.337856,0 -2.218432,-0.13354 -2.218432,-0.33644 0,-0.18504 0.943136,-3.86011 2.095872,-8.16683 2.44,-9.11593 2.698464,-10.65667 1.918688,-11.43644 -0.779392,-0.77942 -2.740832,-0.68793 -4.041376,0.18851 -1.601536,1.07928 -2.652672,3.50619 -4.465888,10.3112 -0.891008,3.344 -1.832704,6.836 -2.092608,7.76 l -0.472576,1.68 h -2.23104 c -1.227104,0 -2.22896,-0.108 -2.226336,-0.24 0.0032,-0.132 1.010592,-4.0521 2.24,-8.71133 1.229376,-4.65923 2.235264,-8.92092 2.235264,-9.47041 0,-2.21066 -2.906944,-2.85794 -4.915392,-1.0945 -1.588191,1.39444 -2.185695,2.91117 -4.364223,11.07826 -1.0736,4.02489 -2.026592,7.56998 -2.11776,7.87798 -0.137216,0.46354 -0.547872,0.56 -2.384192,0.56 -1.46496,0 -2.218432,-0.12562 -2.218432,-0.36985 z m 56.383867,-0.0153 c 0.0791,-0.22815 1.50103,-5.56179 3.15994,-11.85253 l 3.01619,-11.43771 2.32611,-0.002 c 2.25357,-0.002 2.32039,0.0202 2.14317,0.71771 -0.10061,0.396 -1.50944,5.688 -3.13075,11.76 l -2.94784,11.04 -2.35526,0.0948 c -1.82004,0.0733 -2.32263,6.4e-4 -2.21156,-0.32 z m 32.04068,-0.31997 c 0.10281,-0.40417 1.5159,-5.73885 3.14019,-11.85485 l 2.95321,-11.12 h 2.16573 2.1657 l -0.46122,1.52 c -0.65827,2.16934 -0.59062,2.29438 0.51539,0.95259 2.12628,-2.57952 5.47213,-3.66712 8.14324,-2.64702 3.11836,1.19092 3.09443,2.62952 -0.25044,15.05443 l -2.32595,8.64 -2.34137,0.0945 c -2.12583,0.0858 -2.32564,0.0417 -2.17018,-0.48 0.0942,-0.316 1.11395,-4.11491 2.26618,-8.44203 2.06508,-7.75524 2.46537,-10.35411 1.71097,-11.10851 -0.6488,-0.64881 -2.93174,-0.45788 -4.12281,0.3448 -1.67412,1.12818 -2.67252,3.56239 -4.88541,11.9112 l -2.03562,7.68 -2.32729,0.0949 c -2.28743,0.0932 -2.32407,0.0823 -2.14032,-0.64 z m 61.06271,-11.05485 c 1.72954,-6.468 3.14647,-11.796 3.14868,-11.84 0.0141,-0.27523 4.48406,-0.0229 4.48406,0.25314 0,0.18323 -1.368,5.45207 -3.04,11.70855 -1.672,6.25647 -3.04,11.43456 -3.04,11.50686 0,0.0723 -1.0569,0.13145 -2.34867,0.13145 h -2.34867 z m -85.47052,-17.66279 c 0.34278,-1.23701 0.62326,-2.32293 0.62326,-2.41316 0,-0.0902 1.09146,-0.16405 2.42544,-0.16405 h 2.42541 l -0.22691,1.03312 c -0.1248,0.56821 -0.39415,1.61221 -0.59853,2.32 l -0.37165,1.28688 -2.45014,0.0932 -2.45015,0.0932 z m 89.75932,1.18967 c 0.1248,-0.56822 0.39415,-1.61222 0.59853,-2.32 l 0.37165,-1.28688 2.45014,-0.0932 2.45015,-0.0932 -0.62327,2.24911 c -0.34278,1.23701 -0.62326,2.32293 -0.62326,2.41316 0,0.0902 -1.09146,0.16405 -2.42544,0.16405 h -2.42541 z m -233.296056,-0.24688 c -1.977856,-1.17323 -2.712992,-1.19383 -3.998624,-0.11206 l -1.007712,0.84794 -0.67664,-0.67665 c -0.661248,-0.66124 -0.663104,-0.69162 -0.08115,-1.33467 0.32752,-0.36191 1.243136,-1.08699 2.034688,-1.61129 1.896544,-1.25622 3.365472,-1.25445 5.60016,0.007 2.085472,1.17696 2.758272,1.19719 4.036832,0.12136 0.96464,-0.81168 1.017088,-0.82014 1.632384,-0.26331 0.630208,0.57032 0.626624,0.5848 -0.412096,1.66667 -1.335136,1.39061 -3.129568,2.3168 -4.475104,2.30982 -0.585664,-0.003 -1.762592,-0.42654 -2.652736,-0.95454 z"
         id="path880" />
    </g>
  </g>
</svg>
