<?xml version="1.0" encoding="UTF-8" standalone="no"?>
<svg
   xmlns:dc="http://purl.org/dc/elements/1.1/"
   xmlns:cc="http://creativecommons.org/ns#"
   xmlns:rdf="http://www.w3.org/1999/02/22-rdf-syntax-ns#"
   xmlns:svg="http://www.w3.org/2000/svg"
   xmlns="http://www.w3.org/2000/svg"
   xmlns:sodipodi="http://sodipodi.sourceforge.net/DTD/sodipodi-0.dtd"
   xmlns:inkscape="http://www.inkscape.org/namespaces/inkscape"
   sodipodi:docname="scroll-up-btn.svg"
   inkscape:version="1.0 (4035a4fb49, 2020-05-01)"
   id="svg8"
   version="1.1"
   viewBox="0 0 37.419643 37.419643"
   height="37.419643mm"
   width="37.419643mm">
  <defs
     id="defs2" />
  <sodipodi:namedview
     inkscape:window-maximized="1"
     inkscape:window-y="-9"
     inkscape:window-x="-9"
     inkscape:window-height="1001"
     inkscape:window-width="1920"
     fit-margin-bottom="0"
     fit-margin-right="0"
     fit-margin-left="0"
     fit-margin-top="0"
     showgrid="false"
     inkscape:document-rotation="0"
     inkscape:current-layer="layer1"
     inkscape:document-units="mm"
     inkscape:cy="60.094151"
     inkscape:cx="103.63053"
     inkscape:zoom="2.8"
     inkscape:pageshadow="2"
     inkscape:pageopacity="0.0"
     borderopacity="1.0"
     bordercolor="#666666"
     pagecolor="#ffffff"
     id="base" />
  <metadata
     id="metadata5">
    <rdf:RDF>
      <cc:Work
         rdf:about="">
        <dc:format>image/svg+xml</dc:format>
        <dc:type
           rdf:resource="http://purl.org/dc/dcmitype/StillImage" />
        <dc:title></dc:title>
      </cc:Work>
    </rdf:RDF>
  </metadata>
  <g
     transform="translate(-23.188845,-153.74181)"
     id="layer1"
     inkscape:groupmode="layer"
     inkscape:label="Layer 1">
    <g
       id="g862">
      <circle
         style="fill:#214478;fill-rule:evenodd;stroke-width:1.44657;stroke-linecap:round;stroke-linejoin:round;paint-order:stroke fill markers;stop-color:#000000"
         id="path841"
         cx="41.898666"
         cy="172.45163"
         r="18.709822" />
      <g
         aria-label="ME
NU"
         id="text839"
         style="font-weight:500;font-size:17.6389px;line-height:0.85;font-family:Rajdhani;-inkscape-font-specification:'Rajdhani Medium';letter-spacing:0px;fill:#ffffff;stroke:#ffffff;stroke-width:0.264583"
         transform="translate(-21.828125,-0.56696429)">
        <path
           d="m 62.6609,159.88141 h 1.428751 q 0.246944,0 0.246944,0.24694 v 10.84793 q 0,0.24694 -0.246944,0.24694 h -0.776112 q -0.246945,0 -0.246945,-0.24694 v -9.36626 h -0.07055 l -2.73403,6.91445 q -0.105833,0.2293 -0.3175,0.2293 h -0.846667 q -0.229306,0 -0.299862,-0.2293 l -2.786946,-6.93209 h -0.07055 v 9.3839 q 0,0.24694 -0.229306,0.24694 h -0.776112 q -0.246944,0 -0.246944,-0.24694 v -10.84793 q 0,-0.24694 0.246944,-0.24694 h 1.428751 q 0.15875,0 0.211667,0.14111 l 2.89278,7.3025 h 0.08819 l 2.89278,-7.3025 q 0.03528,-0.14111 0.211667,-0.14111 z"
           style="fill:#ffffff;stroke:#ffffff;stroke-width:0.264583"
           id="path847" />
        <path
           d="m 72.910479,171.22322 h -5.538615 q -0.246945,0 -0.246945,-0.24694 v -10.84793 q 0,-0.24694 0.246945,-0.24694 h 5.538615 q 0.246944,0 0.246944,0.24694 v 0.635 q 0,0.24695 -0.246944,0.24695 h -4.321531 q -0.176389,0 -0.176389,0.15875 v 3.56306 q 0,0.15875 0.176389,0.15875 h 3.774725 q 0.246945,0 0.246945,0.24694 v 0.635 q 0,0.24695 -0.246945,0.24695 h -3.774725 q -0.176389,0 -0.176389,0.15875 v 3.75708 q 0,0.15875 0.176389,0.15875 h 4.321531 q 0.246944,0 0.246944,0.24695 v 0.635 q 0,0.24694 -0.246944,0.24694 z"
           style="fill:#ffffff;stroke:#ffffff;stroke-width:0.264583"
           id="path849" />
        <path
           d="m 55.711173,186.21629 h -0.776112 q -0.246944,0 -0.246944,-0.24695 v -10.84792 q 0,-0.24695 0.246944,-0.24695 h 0.723195 q 0.211667,0 0.282223,0.14111 l 4.868336,8.55487 h 0.07056 v -8.44903 q 0,-0.24695 0.246944,-0.24695 h 0.776112 q 0.246945,0 0.246945,0.24695 v 10.84792 q 0,0.24695 -0.246945,0.24695 h -0.652639 q -0.194028,0 -0.370417,-0.22931 l -4.850698,-8.46667 h -0.07056 v 8.44903 q 0,0.24695 -0.246944,0.24695 z"
           style="fill:#ffffff;stroke:#ffffff;stroke-width:0.264583"
           id="path851" />
        <path
           d="m 72.116728,174.87447 h 0.79375 q 0.246945,0 0.246945,0.22931 v 8.50195 q 0,1.23472 -0.687917,1.92264 -0.687917,0.68792 -1.905001,0.68792 h -1.957918 q -1.217085,0 -1.922641,-0.68792 -0.687917,-0.68792 -0.687917,-1.92264 v -8.48431 q 0,-0.24695 0.246945,-0.24695 h 0.79375 q 0.246945,0 0.246945,0.24695 v 8.43139 q 0,1.53459 1.464029,1.53459 h 1.658057 q 1.481667,0 1.481667,-1.53459 v -8.43139 q 0,-0.24695 0.229306,-0.24695 z"
           style="fill:#ffffff;stroke:#ffffff;stroke-width:0.264583"
           id="path853" />
      </g>
    </g>
  </g>
</svg>
